<svg width="25" height="25" viewBox="0 0 25 25" fill="none" xmlns="http://www.w3.org/2000/svg">
<path d="M22.9625 19.4104C22.9548 18.3983 22.5515 17.4294 21.8388 16.7108L21.5417 16.375C20.428 15.2615 18.9186 14.6345 17.3438 14.6313C16.4466 14.638 15.5629 14.8501 14.7604 15.2513L13.6625 15.7938C12.728 15.3411 11.8764 14.7342 11.1438 13.9983C10.4094 13.2429 9.80692 12.3697 9.36125 11.415L9.90375 10.3171C10.3116 9.51648 10.5282 8.63222 10.5367 7.73376C10.5232 6.9476 10.3543 6.17187 10.0394 5.45136C9.72464 4.73085 9.27025 4.07982 8.7025 3.53585L8.34084 3.1871C7.61483 2.46019 6.62987 2.05133 5.6025 2.05043H4.5175C3.48979 2.05043 2.50417 2.45869 1.77746 3.18539C1.05076 3.9121 0.642502 4.89772 0.642502 5.92543V6.04168C0.683269 8.16057 1.01355 10.2639 1.62417 12.2933C2.41823 14.9219 3.83634 17.3194 5.7575 19.2813C7.71243 21.2078 10.106 22.6307 12.7325 23.4275C14.7603 24.047 16.8643 24.3817 18.9842 24.4221H19.0746C20.1023 24.4221 21.0879 24.0138 21.8146 23.2871C22.5413 22.5604 22.9496 21.5748 22.9496 20.5471V19.4621L22.9625 19.4104ZM19.0875 21.8129C17.2125 21.7829 15.3512 21.4872 13.5592 20.9346C11.3302 20.2614 9.29648 19.0607 7.63042 17.4342C6.00736 15.7677 4.81092 13.7337 4.14292 11.5054C3.6 9.70716 3.30877 7.84236 3.2775 5.96418C3.2775 5.62161 3.41359 5.29307 3.65582 5.05083C3.89806 4.8086 4.2266 4.67251 4.56917 4.67251H5.65417C5.82416 4.67153 5.99267 4.70411 6.15005 4.76839C6.30742 4.83267 6.45056 4.92738 6.57125 5.0471L6.92 5.39585C7.52046 6.02048 7.85404 6.85442 7.85 7.72085C7.85008 8.2378 7.72605 8.74721 7.48834 9.20626L6.67458 10.8467C6.59783 11.015 6.5581 11.1978 6.5581 11.3827C6.5581 11.5677 6.59783 11.7505 6.67458 11.9188C7.27138 13.3683 8.14939 14.6853 9.25792 15.7938C10.3659 16.9028 11.683 17.7809 13.1329 18.3771C13.3012 18.4539 13.484 18.4936 13.669 18.4936C13.8539 18.4936 14.0367 18.4539 14.205 18.3771L15.8454 17.5504C16.4747 17.2301 17.1897 17.1188 17.8865 17.2326C18.5834 17.3464 19.2258 17.6794 19.7204 18.1833L20.0692 18.545C20.3078 18.7856 20.4423 19.1103 20.4438 19.4492V20.5213C20.4441 20.6976 20.4083 20.8722 20.3386 21.0341C20.2689 21.1961 20.1667 21.3421 20.0385 21.4631C19.9102 21.5842 19.7585 21.6776 19.5927 21.7378C19.4269 21.7979 19.2506 21.8235 19.0746 21.8129H19.0875ZM13.0683 6.55835C13.0204 6.21921 13.1092 5.87493 13.3151 5.60122C13.521 5.32751 13.8271 5.14677 14.1663 5.09876C14.3812 5.08197 14.5971 5.08197 14.8121 5.09876C15.3684 5.10662 15.9207 5.19361 16.4525 5.3571C17.2124 5.59964 17.9032 6.02049 18.4672 6.5845C19.0312 7.14852 19.452 7.83931 19.6946 8.59918C19.8612 9.12989 19.944 9.68336 19.94 10.2396C19.9613 10.4543 19.9613 10.6707 19.94 10.8854C19.8938 11.228 19.7133 11.5382 19.4384 11.7477C19.1634 11.9572 18.8165 12.049 18.474 12.0027C18.1314 11.9565 17.8212 11.776 17.6117 11.5011C17.4022 11.2262 17.3104 10.8793 17.3567 10.5367C17.3567 10.5367 17.3567 10.4075 17.3567 10.2396C17.3631 9.94588 17.3195 9.65321 17.2275 9.37418C17.1165 9.00829 16.917 8.67542 16.6466 8.40505C16.3763 8.13468 16.0434 7.93517 15.6775 7.82418C15.3973 7.73553 15.1059 7.68768 14.8121 7.6821C14.7175 7.67375 14.6225 7.67375 14.5279 7.6821C14.3581 7.70564 14.1853 7.69513 14.0195 7.65118C13.8538 7.60723 13.6985 7.53073 13.5626 7.42613C13.4267 7.32153 13.3131 7.19093 13.2282 7.04194C13.1433 6.89295 13.089 6.72856 13.0683 6.55835ZM24.9129 8.98668V9.16751C24.9129 9.51009 24.7768 9.83863 24.5346 10.0809C24.2924 10.3231 23.9638 10.4592 23.6213 10.4592C23.2787 10.4592 22.9501 10.3231 22.7079 10.0809C22.4657 9.83863 22.3296 9.51009 22.3296 9.16751V9.03835C22.3251 8.41731 22.2338 7.79995 22.0583 7.20418C21.7771 6.1941 21.2428 5.2725 20.506 4.5266C19.7691 3.7807 18.8541 3.23518 17.8475 2.94168C17.2517 2.76625 16.6344 2.67495 16.0133 2.67043H15.8971C15.7275 2.67467 15.5587 2.64546 15.4003 2.58447C15.242 2.52347 15.0972 2.43189 14.9743 2.31494C14.8513 2.198 14.7526 2.05799 14.6838 1.9029C14.615 1.74781 14.5774 1.58068 14.5731 1.41106C14.5689 1.24143 14.5981 1.07263 14.6591 0.914298C14.7201 0.755963 14.8117 0.611192 14.9286 0.488251C15.0456 0.36531 15.1856 0.266607 15.3407 0.197777C15.4958 0.128947 15.6629 0.0913378 15.8325 0.0870972H16.0133C16.8887 0.090535 17.7589 0.221064 18.5967 0.474597C20.0068 0.885316 21.2906 1.64513 22.3292 2.68371C23.3678 3.72229 24.1276 5.00608 24.5383 6.41626C24.7881 7.25018 24.9143 8.11618 24.9129 8.98668Z" fill="url(#paint0_linear_377_2)"/>
<defs>
<linearGradient id="paint0_linear_377_2" x1="12.7777" y1="0.0870972" x2="12.7777" y2="24.4221" gradientUnits="userSpaceOnUse">
<stop stop-color="#00E7F0"/>
<stop offset="1" stop-color="#006DF0"/>
</linearGradient>
</defs>
</svg>
