<svg width="219" height="52" viewBox="0 0 219 52" fill="none" xmlns="http://www.w3.org/2000/svg">
<g clip-path="url(#clip0_63_216)">
<path d="M22.2921 9.69862C23.653 10.1026 25.0363 10.379 26.44 10.5708C26.8012 10.6136 27.1633 10.6554 27.504 10.6983C27.5254 10.5708 27.5468 10.4218 27.5682 10.2943C27.7172 9.37935 27.8875 8.44395 28.0365 7.52996C28.3772 5.4674 28.7383 3.38246 29.3974 1.40459C29.5249 1.04347 29.6524 0.681376 29.7799 0.320258C28.9291 0.192748 28.0569 0.108065 27.2061 0.0652372C26.9929 0.0438232 26.7807 0.0438232 26.5889 0.0438232C26.44 1.23522 26.1421 2.40423 25.7167 3.51094C25.121 5.10629 24.3558 6.63739 23.4194 8.08381C23.0787 8.61526 22.6961 9.14672 22.2921 9.70056V9.69862Z" fill="url(#paint0_linear_63_216)"/>
<path d="M27.0786 14.5683C27.1214 13.9093 27.1633 13.2494 27.2489 12.5904C26.3135 12.5057 25.3984 12.3568 24.4834 12.1865C23.3133 11.9743 22.1432 11.6764 21.0159 11.3143C20.8027 11.5694 20.5691 11.8244 20.3355 12.0804C18.8256 13.739 17.1231 15.2068 15.2521 16.4401C14.7206 16.8012 14.1677 17.1419 13.5933 17.4611C13.934 18.9922 14.0616 20.609 13.934 22.1615C13.8912 22.799 13.8065 23.459 13.679 24.0965C13.9983 24.0537 14.2962 24.0119 14.6145 23.969C18.9327 23.3733 23.2081 22.544 27.4193 21.4383C27.0786 19.1626 26.9511 16.8654 27.0786 14.5693V14.5683Z" fill="url(#paint1_linear_63_216)"/>
<path d="M11.8051 29.711C11.6776 30.0088 11.5286 30.2853 11.4011 30.5617C11.9968 30.7739 12.5926 31.0085 13.1669 31.2849C15.1236 32.1999 16.9537 33.4117 18.5278 34.8795C18.5706 34.9224 18.6339 34.9642 18.6767 35.007C21.4637 31.3277 24.1436 27.5423 26.5685 23.6284C22.1656 24.7127 17.7198 25.5216 13.2098 26.0531C12.8272 27.3077 12.359 28.5205 11.806 29.711H11.8051Z" fill="url(#paint2_linear_63_216)"/>
<path d="M29.4178 10.8257C30.694 10.8685 31.9916 10.8471 33.2678 10.741C33.8207 9.4007 34.3318 8.06135 34.8205 6.67918C35.3305 5.16949 35.8202 3.63742 36.1395 2.06446C35.9477 1.97978 35.7355 1.89412 35.5437 1.80944C34.3104 1.31984 33.0342 0.915891 31.7151 0.618042C30.9919 2.40416 30.5665 4.31877 30.2053 6.21196C30.035 7.12692 29.886 8.06233 29.7371 8.97631C29.631 9.61387 29.5239 10.2096 29.4178 10.8267V10.8257Z" fill="url(#paint3_linear_63_216)"/>
<path d="M30.4175 12.7608C29.9921 12.7608 29.5881 12.7394 29.1627 12.7179C28.9291 14.9294 28.8863 17.1419 29.0985 19.332C30.3114 17.1623 31.4173 14.9508 32.4384 12.6965C31.758 12.7394 31.0775 12.7608 30.4175 12.7608Z" fill="url(#paint4_linear_63_216)"/>
<path d="M35.4376 10.4637C37.4799 10.1026 39.4794 9.52831 41.4146 8.71944C42.3501 8.3155 43.2652 7.86872 44.1374 7.37912C43.0315 6.29479 41.8186 5.29515 40.4996 4.42302C39.6916 3.87015 38.8408 3.38054 37.9258 2.91333C37.3728 5.38081 36.522 7.78404 35.5856 10.1444C35.5213 10.2291 35.4795 10.3566 35.4366 10.4637H35.4376Z" fill="url(#paint5_linear_63_216)"/>
<path d="M35.9906 12.2926C35.5223 12.3773 35.0551 12.4415 34.5868 12.5048C33.9483 14.0145 33.2464 15.5037 32.5231 16.9706C31.906 18.1824 31.2683 19.3738 30.6083 20.5438C34.1391 19.5013 37.6065 18.2895 41.0097 16.8645C43.6049 15.7588 46.1359 14.5459 48.625 13.2066C48.4761 12.9516 48.3272 12.6966 48.1782 12.462C47.4121 11.2073 46.5195 9.97406 45.4769 8.80408C44.5618 9.33553 43.6049 9.82514 42.6266 10.2505C40.4996 11.1859 38.2869 11.9091 35.9896 12.2926H35.9906Z" fill="url(#paint6_linear_63_216)"/>
<path d="M29.631 22.8205C30.0135 24.5005 30.5246 26.1387 31.1836 27.7331C32.0987 29.8813 33.2678 31.902 34.6725 33.7728C34.7367 33.8575 34.8214 33.9645 34.8857 34.0492C35.9915 32.2631 37.2891 30.5821 38.7143 29.0296C40.5006 27.0945 42.501 25.3503 44.6913 23.9039C46.7969 22.5217 49.0514 21.3731 51.413 20.4796C51.2212 19.6503 51.009 18.8209 50.7325 18.0121C50.3918 16.9696 49.9664 15.9281 49.4992 14.9285C47.9679 15.7578 46.4357 16.5238 44.8616 17.247C39.9477 19.5227 34.8429 21.3731 29.632 22.8195L29.631 22.8205Z" fill="url(#paint7_linear_63_216)"/>
<path d="M51.7741 22.3738C51.4763 22.4799 51.157 22.6074 50.8591 22.7349C48.4128 23.7774 46.1154 25.1167 44.0099 26.7121C41.8829 28.3707 39.9895 30.2853 38.3307 32.4121C37.5646 33.4117 36.8628 34.4542 36.2037 35.5385C37.6075 37.0482 39.1601 38.4314 40.7984 39.7074C42.3511 40.8988 43.968 42.0046 45.5849 43.0889C46.5847 41.9617 47.4783 40.7499 48.2648 39.4738C49.2217 37.9213 50.0307 36.1985 50.6683 34.3481C51.2426 32.6467 51.668 30.7963 51.8812 28.8398C52.1149 26.7344 52.073 24.5434 51.7751 22.3748L51.7741 22.3738Z" fill="url(#paint8_linear_63_216)"/>
<path d="M30.5032 30.732C29.5249 28.8184 28.7169 26.7977 28.1426 24.7128C25.633 28.7328 22.8674 32.6029 20.0172 36.3678C20.3997 36.7932 20.7833 37.24 21.1444 37.7081C21.9524 38.7292 22.7185 39.8135 23.3989 40.9407C24.1008 42.1107 24.718 43.3439 25.2495 44.5986C26.2706 44.3436 27.3132 44.1518 28.3548 44.0671C28.8649 44.0243 29.3759 44.0029 29.886 44.0029C30.1839 44.0029 30.4818 44.0029 30.7582 44.0243C30.9714 43.0675 31.2265 42.1311 31.5244 41.1957C32.1415 39.3239 32.9281 37.5164 33.8645 35.7935C32.5669 34.2196 31.4397 32.5396 30.5042 30.732H30.5032Z" fill="url(#paint9_linear_63_216)"/>
<path d="M30.3961 45.9175H29.9065C29.1618 45.9175 28.4385 45.9603 27.6938 46.0664C27.098 46.1511 26.5237 46.2582 25.9494 46.4071C26.1197 46.8539 26.2687 47.3006 26.4176 47.7474C26.8644 49.1296 27.2256 50.5546 27.5449 51.9796C28.4599 51.9153 29.3954 51.8093 30.3523 51.6603C30.2881 51.4053 30.2462 51.1707 30.2034 50.9157C30.0544 49.8314 30.0544 48.7461 30.1605 47.6403C30.2034 47.0446 30.2881 46.4918 30.3942 45.9175H30.3961Z" fill="url(#paint10_linear_63_216)"/>
<path d="M40.9474 42.1954C38.9265 40.7071 36.9699 39.1331 35.2254 37.3042C34.8643 38.006 34.5236 38.7292 34.2043 39.4524C33.5657 41.0049 33.0556 42.6003 32.673 44.2375C33.7575 44.4292 34.8 44.7475 35.8212 45.131C37.0546 45.6206 38.2675 46.1939 39.4162 46.8967C39.7773 47.1089 40.1394 47.3435 40.5006 47.5771C40.522 47.5557 40.5648 47.5343 40.5853 47.5128C41.9043 46.6193 43.1377 45.6196 44.2649 44.4925C44.2221 44.4497 44.1588 44.4282 44.116 44.3864C43.0316 43.706 41.9676 42.9614 40.9464 42.1954H40.9474Z" fill="url(#paint11_linear_63_216)"/>
<path d="M32.2895 46.1083C32.2252 46.4694 32.162 46.8101 32.1191 47.1712C31.9916 48.2769 31.9274 49.3827 32.0549 50.4894C32.0977 50.7444 32.1396 50.9994 32.2038 51.2554C34.4369 50.7026 36.6282 49.8518 38.6705 48.7033C37.7136 48.129 36.7353 47.5975 35.7141 47.1507C34.6083 46.704 33.4596 46.3429 32.2895 46.1083Z" fill="url(#paint12_linear_63_216)"/>
<path d="M14.7196 40.1328L14.6982 40.1542C14.6554 40.2185 14.6135 40.2603 14.5707 40.3246C14.6349 40.2603 14.6768 40.1971 14.7196 40.1328Z" fill="url(#paint13_linear_63_216)"/>
<path d="M17.2506 36.8359C17.3353 36.7298 17.3995 36.6442 17.4842 36.5381C16.9946 36.0699 16.4845 35.6231 15.9316 35.1977C14.6339 34.2195 13.2516 33.4116 11.7622 32.7517C11.3368 32.5813 10.9114 32.411 10.4646 32.2621C9.67808 33.6443 8.82631 34.9846 7.89082 36.2821C6.82683 37.7918 5.67816 39.2382 4.52948 40.6846C4.80594 41.0885 5.12523 41.5139 5.46497 41.9607C6.57081 43.3857 7.8256 44.7046 9.20888 45.8736C9.31498 45.9583 9.40065 46.0439 9.50675 46.1286C11.4001 44.2997 13.0803 42.2361 14.6758 40.1522C15.5694 39.0464 16.3988 37.9407 17.2496 36.834L17.2506 36.8359Z" fill="url(#paint14_linear_63_216)"/>
<path d="M23.398 45.1514C22.4625 43.046 21.2924 41.0467 19.8887 39.2178C19.5479 38.771 19.1868 38.3456 18.8042 37.9203C18.6125 38.1539 18.4431 38.3885 18.2513 38.6221C16.2518 41.2171 14.3166 43.8753 12.0611 46.2571C11.7204 46.5978 11.4021 46.9589 11.0614 47.2782C11.955 47.9158 12.9119 48.49 13.8688 49.0011C14.486 49.3203 15.1236 49.6386 15.7622 49.916C15.7836 49.8946 15.805 49.8946 15.805 49.8732C16.4222 49.2989 17.0812 48.746 17.7402 48.236C18.6553 47.5128 19.6122 46.8752 20.6548 46.3224C21.5698 45.897 22.4625 45.4931 23.3989 45.1524L23.398 45.1514Z" fill="url(#paint15_linear_63_216)"/>
<path d="M23.0796 47.3211C21.6759 47.9382 20.3569 48.6818 19.1235 49.6182C18.6767 49.9589 18.2299 50.32 17.8045 50.7025C18.2299 50.8515 18.6553 50.979 19.0807 51.0851C20.8465 51.5747 22.7185 51.8715 24.6751 51.9786C24.973 52 25.2709 52 25.5902 52C25.1862 50.2772 24.7179 48.5757 24.1222 46.9171C23.761 47.0446 23.4203 47.1935 23.0796 47.3211Z" fill="url(#paint16_linear_63_216)"/>
<path d="M7.5725 24.6708C8.35905 24.6066 9.14658 24.5433 9.91269 24.4791C10.5084 24.4363 11.1042 24.373 11.6785 24.3087C11.7846 23.862 11.8703 23.3938 11.9336 22.948C12.0825 21.6505 12.1039 20.3744 11.9336 19.0769C11.8907 18.8433 11.8693 18.6087 11.8061 18.3751C10.5084 19.0127 9.14755 19.5237 7.76427 19.9491C5.40365 20.6508 2.93594 21.0548 0.489648 21.0548C0.213187 22.437 0.042832 23.8406 0 25.2441C1.76585 25.2013 3.53072 25.0524 5.27515 24.883C6.0617 24.7983 6.82781 24.7341 7.5725 24.6708Z" fill="url(#paint17_linear_63_216)"/>
<path d="M6.84924 29.4774C7.76428 29.6049 8.65694 29.7538 9.55057 29.9874C9.89128 29.3284 10.1892 28.6685 10.4861 27.9881C10.7197 27.4138 10.9329 26.8395 11.1451 26.2653C10.8686 26.2867 10.5922 26.3295 10.2943 26.3499C8.91199 26.4775 7.52871 26.5836 6.1464 26.7111C4.7641 26.8386 3.38082 26.9875 1.9771 27.0722C1.33851 27.115 0.700899 27.1364 0.0418701 27.1569C0.0847021 27.9862 0.147977 28.8369 0.275499 29.6662C0.318331 29.6662 0.36019 29.6448 0.381606 29.6448C1.6578 29.4326 2.934 29.3041 4.23162 29.3041C5.10383 29.3041 5.97605 29.3683 6.84826 29.4744L6.84924 29.4774Z" fill="url(#paint18_linear_63_216)"/>
<path d="M8.57225 31.7316C7.99791 31.6041 7.40215 31.4766 6.8064 31.3909C5.93419 31.2848 5.04055 31.2206 4.16834 31.2206C3.29612 31.2206 2.38205 31.2848 1.48842 31.3909C1.19054 31.4337 0.892665 31.4756 0.594788 31.5398C0.616204 31.6041 0.616204 31.6888 0.63762 31.752C1.02019 33.5382 1.65877 35.3467 2.50957 37.1756C2.78603 37.7713 3.10533 38.367 3.44506 38.9832C3.84905 38.4936 4.23161 37.9835 4.61515 37.4949C6.06171 35.6445 7.40118 33.7309 8.57127 31.7316H8.57225Z" fill="url(#paint19_linear_63_216)"/>
<path d="M16.1447 6.72108C17.2934 7.5718 18.5268 8.27359 19.8458 8.82646C20.0376 8.91114 20.207 8.97539 20.3987 9.03865C20.3987 9.01724 20.4202 9.01724 20.4202 8.99583C21.6749 7.35863 22.7603 5.59295 23.5897 3.67931C24.0794 2.48792 24.4619 1.27608 24.6537 0H24.5262C22.591 0.127511 20.6762 0.446774 18.8685 0.97823C17.124 1.48827 15.401 2.19007 13.7208 3.10503C13.5505 3.18971 13.3801 3.29678 13.2108 3.38147C13.4444 3.78541 13.7004 4.18936 13.9983 4.57286C14.6154 5.40217 15.3387 6.10396 16.1467 6.72108H16.1447Z" fill="url(#paint20_linear_63_216)"/>
<path d="M10.5075 11.0593C11.1461 11.8458 11.7204 12.6761 12.1876 13.5686C12.5069 14.2062 12.8048 14.8661 13.0599 15.5251C13.9954 14.9722 14.9104 14.3551 15.7826 13.6961C16.9741 12.7607 18.08 11.6969 19.1011 10.5697C18.9522 10.5055 18.8032 10.4422 18.6757 10.3779C16.8894 9.59147 15.2083 8.54899 13.7831 7.18823C13.0813 6.50785 12.4427 5.76323 11.9112 4.93392C11.8051 4.76358 11.698 4.59325 11.5919 4.40247C10.7625 4.97675 9.93313 5.59386 9.12419 6.29566C8.59268 6.74243 8.08162 7.23106 7.55011 7.76349C8.63454 8.78455 9.59242 9.9117 10.5065 11.0603L10.5075 11.0593Z" fill="url(#paint21_linear_63_216)"/>
<path d="M9.82703 17.1848C10.3371 16.9726 10.8482 16.7166 11.3583 16.4616C11.2522 16.1423 11.1451 15.824 11.0176 15.5048C10.5493 14.4418 9.975 13.4422 9.27314 12.5058C8.35809 11.3358 7.37977 10.1873 6.27393 9.18762C5.97605 9.5283 5.67817 9.91083 5.35888 10.3362C4.25303 11.7826 3.29516 13.378 2.48719 15.0794C1.87002 16.3769 1.38134 17.7376 0.997803 19.1198C1.82719 19.0984 2.65657 19.0351 3.46551 18.9281C5.63534 18.6302 7.78375 18.0345 9.82606 17.1838L9.82703 17.1848Z" fill="url(#paint22_linear_63_216)"/>
<path d="M79.1973 39.4134C72.4094 39.4134 67.1109 36.1516 66.1472 30.219L72.9351 28.6645C73.3732 32.2105 75.9781 34.0502 79.4602 34.0502C82.1313 34.0502 84.2554 32.8675 84.233 30.1966C84.2116 27.2191 80.7081 26.2778 76.8542 25.0962C72.2128 23.6517 67.2424 21.9435 67.2424 16.1208C67.2424 10.2981 72.059 6.90402 78.4088 6.90402C83.9702 6.90402 89.5753 9.1593 90.8457 15.2234L84.4959 16.7992C83.905 13.6465 81.7809 12.2672 78.8031 12.2672C76.1534 12.2672 73.8988 13.3623 73.8988 15.967C73.8988 18.3975 77.008 19.2073 80.5991 20.28C85.372 21.7245 91.0209 23.5641 91.0209 29.8686C91.0209 36.5897 85.3934 39.4134 79.1973 39.4134ZM111.165 16.4712H117.471V38.9763H111.494L111.341 36.2616C109.765 38.2541 107.268 39.4144 104.181 39.4144C98.7725 39.4144 95.7947 36.5906 95.7947 31.6206V16.4702H102.122V30.2618C102.122 33.2393 103.983 34.3334 106.173 34.3334C108.779 34.3334 111.143 33.0203 111.165 28.8826V16.4712ZM137.286 16.0342C142.695 16.0342 145.673 18.8365 145.673 23.8279V38.9773H139.345V25.1857C139.345 22.1868 137.484 21.0918 135.316 21.0918C132.71 21.0918 130.346 22.4048 130.302 26.565V38.9773H123.996V16.4712H130.302V18.9669C131.878 17.1058 134.308 16.0342 137.286 16.0342ZM154.999 13.0995C153.007 13.0995 151.343 11.4798 151.343 9.46494C151.343 7.45007 153.007 5.85278 154.999 5.85278C156.992 5.85278 158.612 7.47246 158.612 9.46494C158.612 11.4574 156.948 13.0995 154.999 13.0995ZM151.781 38.9763V16.4702H158.131V38.9754L151.781 38.9763ZM179.391 16.4712H185.85L171.969 49.5734H165.575L170.721 38.0585L161.459 16.4732H168.335L173.699 31.2722L179.392 16.4722L179.391 16.4712ZM186.551 38.9763L198.878 22.47L186.901 7.343H194.893L202.775 17.72L210.658 7.343H218.65L206.673 22.47L219 38.9763H210.636L202.775 27.7895L194.915 38.9763H186.551Z" fill="url(#paint23_linear_63_216)"/>
</g>
<defs>
<linearGradient id="paint0_linear_63_216" x1="26.036" y1="0.0438232" x2="26.036" y2="10.6983" gradientUnits="userSpaceOnUse">
<stop offset="0.8" stop-color="white"/>
</linearGradient>
<linearGradient id="paint1_linear_63_216" x1="20.5063" y1="11.3143" x2="20.5063" y2="24.0965" gradientUnits="userSpaceOnUse">
<stop offset="0.8" stop-color="white"/>
</linearGradient>
<linearGradient id="paint2_linear_63_216" x1="18.9848" y1="23.6284" x2="18.9848" y2="35.007" gradientUnits="userSpaceOnUse">
<stop offset="0.8" stop-color="white"/>
</linearGradient>
<linearGradient id="paint3_linear_63_216" x1="32.7786" y1="0.618042" x2="32.7786" y2="10.8464" gradientUnits="userSpaceOnUse">
<stop offset="0.8" stop-color="white"/>
</linearGradient>
<linearGradient id="paint4_linear_63_216" x1="30.6997" y1="12.6965" x2="30.6997" y2="19.332" gradientUnits="userSpaceOnUse">
<stop offset="0.8" stop-color="white"/>
</linearGradient>
<linearGradient id="paint5_linear_63_216" x1="39.787" y1="2.91333" x2="39.787" y2="10.4637" gradientUnits="userSpaceOnUse">
<stop offset="0.8" stop-color="white"/>
</linearGradient>
<linearGradient id="paint6_linear_63_216" x1="39.6167" y1="8.80408" x2="39.6167" y2="20.5438" gradientUnits="userSpaceOnUse">
<stop offset="0.8" stop-color="white"/>
</linearGradient>
<linearGradient id="paint7_linear_63_216" x1="40.522" y1="14.9285" x2="40.522" y2="34.0492" gradientUnits="userSpaceOnUse">
<stop offset="0.8" stop-color="white"/>
</linearGradient>
<linearGradient id="paint8_linear_63_216" x1="44.1175" y1="22.3738" x2="44.1175" y2="43.0889" gradientUnits="userSpaceOnUse">
<stop offset="0.8" stop-color="white"/>
</linearGradient>
<linearGradient id="paint9_linear_63_216" x1="26.9408" y1="24.7128" x2="26.9408" y2="44.5986" gradientUnits="userSpaceOnUse">
<stop offset="0.8" stop-color="white"/>
</linearGradient>
<linearGradient id="paint10_linear_63_216" x1="28.1727" y1="45.9175" x2="28.1727" y2="51.9796" gradientUnits="userSpaceOnUse">
<stop offset="0.8" stop-color="white"/>
</linearGradient>
<linearGradient id="paint11_linear_63_216" x1="38.469" y1="37.3042" x2="38.469" y2="47.5771" gradientUnits="userSpaceOnUse">
<stop offset="0.8" stop-color="white"/>
</linearGradient>
<linearGradient id="paint12_linear_63_216" x1="35.328" y1="46.1083" x2="35.328" y2="51.2554" gradientUnits="userSpaceOnUse">
<stop offset="0.8" stop-color="white"/>
</linearGradient>
<linearGradient id="paint13_linear_63_216" x1="14.6451" y1="40.1328" x2="14.6451" y2="40.3246" gradientUnits="userSpaceOnUse">
<stop offset="0.8" stop-color="white"/>
</linearGradient>
<linearGradient id="paint14_linear_63_216" x1="11.0068" y1="32.2621" x2="11.0068" y2="46.1286" gradientUnits="userSpaceOnUse">
<stop offset="0.8" stop-color="white"/>
</linearGradient>
<linearGradient id="paint15_linear_63_216" x1="17.2302" y1="37.9203" x2="17.2302" y2="49.916" gradientUnits="userSpaceOnUse">
<stop offset="0.8" stop-color="white"/>
</linearGradient>
<linearGradient id="paint16_linear_63_216" x1="21.6973" y1="46.9171" x2="21.6973" y2="52" gradientUnits="userSpaceOnUse">
<stop offset="0.8" stop-color="white"/>
</linearGradient>
<linearGradient id="paint17_linear_63_216" x1="6.02672" y1="18.3751" x2="6.02672" y2="25.2441" gradientUnits="userSpaceOnUse">
<stop offset="0.8" stop-color="white"/>
</linearGradient>
<linearGradient id="paint18_linear_63_216" x1="5.59348" y1="26.2653" x2="5.59348" y2="29.9874" gradientUnits="userSpaceOnUse">
<stop offset="0.8" stop-color="white"/>
</linearGradient>
<linearGradient id="paint19_linear_63_216" x1="4.58352" y1="31.2206" x2="4.58352" y2="38.9832" gradientUnits="userSpaceOnUse">
<stop offset="0.8" stop-color="white"/>
</linearGradient>
<linearGradient id="paint20_linear_63_216" x1="18.9322" y1="0" x2="18.9322" y2="9.03865" gradientUnits="userSpaceOnUse">
<stop offset="0.8" stop-color="white"/>
</linearGradient>
<linearGradient id="paint21_linear_63_216" x1="13.3256" y1="4.40247" x2="13.3256" y2="15.5251" gradientUnits="userSpaceOnUse">
<stop offset="0.8" stop-color="white"/>
</linearGradient>
<linearGradient id="paint22_linear_63_216" x1="6.17804" y1="9.18762" x2="6.17804" y2="19.1198" gradientUnits="userSpaceOnUse">
<stop offset="0.8" stop-color="white"/>
</linearGradient>
<linearGradient id="paint23_linear_63_216" x1="143" y1="12.5" x2="143" y2="64" gradientUnits="userSpaceOnUse">
<stop stop-color="white"/>
</linearGradient>
<clipPath id="clip0_63_216">
<rect width="219" height="52" fill="white"/>
</clipPath>
</defs>
</svg>
