<svg width="46" height="45" viewBox="0 0 46 45" fill="none" xmlns="http://www.w3.org/2000/svg">
<g clip-path="url(#clip0_255_471)">
<path d="M23 45C35.7025 45 46 34.9264 46 22.5C46 10.0736 35.7025 0 23 0C10.2975 0 0 10.0736 0 22.5C0 34.9264 10.2975 45 23 45Z" fill="#1C8ADB"/>
<path d="M35.5298 11.6334L35.0541 11.8022L9.23661 20.9019C9.05366 20.9572 8.89464 21.0704 8.78449 21.2237C8.67435 21.3769 8.61929 21.5616 8.62796 21.7487C8.63663 21.9359 8.70853 22.1149 8.8324 22.2578C8.95626 22.4007 9.12508 22.4993 9.31241 22.5383L15.9955 24.328L17.2422 27.9076L18.4889 31.4871C18.5605 31.6626 18.6748 31.8183 18.8219 31.9408C18.969 32.0632 19.1444 32.1487 19.333 32.1897C19.5215 32.2308 19.7174 32.2262 19.9037 32.1764C20.09 32.1266 20.2611 32.0331 20.4021 31.9039L23.8547 28.713L30.6345 33.2104C31.463 33.7627 32.6443 33.3536 32.856 32.4434L37.3463 13.0346C37.5658 12.0732 36.5308 11.2832 35.5298 11.6334ZM32.234 15.9417L20.5693 25.2689L20.0205 25.7087C19.8999 25.8022 19.8212 25.9379 19.8009 26.0871L19.6781 27.0792L19.3409 29.8661C19.3437 29.9 19.3326 29.9336 19.31 29.9595C19.2875 29.9854 19.2554 30.0015 19.2207 30.0042C19.186 30.0069 19.1517 29.996 19.1252 29.974C19.0988 29.9519 19.0823 29.9205 19.0796 29.8866L18.1308 27.1022L17.1507 24.2513C17.1093 24.1232 17.1148 23.9849 17.1663 23.8603C17.2178 23.7357 17.3121 23.6326 17.433 23.5687L29.5707 16.7624L31.855 15.484C32.187 15.2948 32.5267 15.7064 32.234 15.9417Z" fill="white"/>
</g>
<defs>
<clipPath id="clip0_255_471">
<rect width="46" height="45" fill="white"/>
</clipPath>
</defs>
</svg>
