<svg width="46" height="46" viewBox="0 0 46 46" fill="none" xmlns="http://www.w3.org/2000/svg">
<g clip-path="url(#clip0_255_503)">
<path d="M23 46.0001C35.7026 46.0001 46.0001 35.7026 46.0001 23C46.0001 10.2975 35.7026 0 23 0C10.2975 0 0 10.2975 0 23C0 35.7026 10.2975 46.0001 23 46.0001Z" fill="#D42428"/>
<path d="M39.2627 6.73413C48.2448 15.717 48.2456 30.2803 39.2627 39.2632C30.2806 48.2453 15.7165 48.2457 6.73364 39.2632L39.2627 6.73413Z" fill="#CC202D"/>
<path d="M45.5377 27.6065L34.1542 16.2234L20.7286 17.752L12.6077 30.3244L27.7823 45.4987C36.7041 43.6114 43.7182 36.5541 45.5377 27.6065Z" fill="#BA202E"/>
<path d="M35.0361 18.5617C35.0361 16.6336 33.4741 15.0708 31.547 15.0708H15.1776C13.2509 15.0708 11.6892 16.634 11.6892 18.5617V27.9226C11.6892 29.8507 13.2512 31.4135 15.1776 31.4135H31.5467C33.4742 31.4135 35.0358 29.8503 35.0358 27.9226V18.5617H35.0361ZM21.0272 27.1911V18.399L27.6948 22.7953L21.0272 27.1911Z" fill="white"/>
</g>
<defs>
<clipPath id="clip0_255_503">
<rect width="46" height="46" fill="white"/>
</clipPath>
</defs>
</svg>
