<svg width="64" height="64" viewBox="0 0 64 64" fill="none" xmlns="http://www.w3.org/2000/svg">
<g id="Capa_1">
<g id="Group">
<g id="Group_2">
<path id="Vector" d="M38.6875 0C38.6589 0 38.6305 0.0005 38.6021 0.001L38.557 0.001625C38.0414 0.004625 37.625 0.4235 37.625 0.939125V4.15438C32.6105 4.413 27.9336 6.49687 24.3699 10.0815C20.5846 13.8891 18.5 18.9431 18.5 24.3125C18.5 34.2723 25.7504 42.5694 35.25 44.2059V48.0625C35.25 48.5804 35.6698 49 36.1875 49C36.7052 49 37.125 48.5804 37.125 48.0625V44.44C37.6408 44.4796 38.1618 44.5 38.6875 44.5C39.2132 44.5 39.7342 44.4796 40.25 44.44V55.8515H37.125V51.8125C37.125 51.2946 36.7052 50.875 36.1875 50.875C35.6698 50.875 35.25 51.2946 35.25 51.8125V61.977C35.25 63.0925 36.1575 64 37.2729 64H40.1021C41.2175 64 42.125 63.0925 42.125 61.977V44.2059C51.3249 42.621 58.4142 34.7891 58.8525 25.25H62.0625C62.5802 25.25 63 24.8304 63 24.3125C63 10.9065 52.0935 0 38.6875 0ZM40.25 61.977C40.25 62.0586 40.1836 62.125 40.1021 62.125H37.2729C37.1914 62.125 37.125 62.0586 37.125 61.977V57.7264H40.25V61.977ZM38.6875 42.625C28.59 42.625 20.375 34.41 20.375 24.3125C20.375 19.4419 22.266 14.8573 25.6996 11.4034C28.909 8.175 33.1136 6.2885 37.625 6.03175V7.66012C33.5459 7.91525 29.747 9.63313 26.8444 12.5568C23.7205 15.7033 22 19.8783 22 24.3125C22 33.514 29.486 41 38.6875 41C47.5744 41 54.8602 34.0171 55.3481 25.25H56.9762C56.4866 34.9136 48.4706 42.625 38.6875 42.625ZM49.7713 23.375C49.2535 23.375 48.8338 23.7946 48.8338 24.3125C48.8338 24.8304 49.2535 25.25 49.7713 25.25H53.4694C52.984 32.9824 46.5401 39.125 38.6874 39.125C30.5199 39.125 23.875 32.4801 23.875 24.3125C23.875 20.3765 25.4021 16.6707 28.175 13.8778C30.7231 11.3111 34.0495 9.79175 37.625 9.53988V24.3125C37.625 24.8304 38.0448 25.25 38.5625 25.25H46.0213C46.539 25.25 46.9588 24.8304 46.9588 24.3125C46.9588 23.7946 46.539 23.375 46.0213 23.375H39.5V1.8895C51.186 2.30737 60.6235 11.7052 61.1056 23.375H49.7713Z" fill="url(#paint0_linear_81_707)"/>
</g>
</g>
<g id="Group_3">
<g id="Group_4">
<path id="Vector_2" d="M42.954 27.4969C42.5432 27.1815 41.9547 27.2591 41.6395 27.6696L36.9586 33.7674L37.9899 26.8253C38.0309 26.5495 37.947 26.2699 37.761 26.0623C37.575 25.8545 37.3045 25.743 37.0276 25.7507L33.1159 25.8966L36.141 21.9363C36.4554 21.5248 36.3765 20.9365 35.9651 20.6221C35.5536 20.3078 34.9652 20.3864 34.651 20.798L31.082 25.4704C30.7011 25.9566 30.6664 26.6076 30.9942 27.1321C31.3055 27.63 31.862 27.8848 32.4346 27.7983L35.9694 27.6664L34.8787 35.008C34.7276 35.6317 34.9906 36.2604 35.5501 36.5918C35.7855 36.7311 36.0417 36.7994 36.295 36.7994C36.6695 36.7994 37.0374 36.6504 37.3214 36.3621C37.3485 36.3346 37.3739 36.3055 37.3974 36.275L43.1267 28.8114C43.4421 28.4006 43.3647 27.8121 42.954 27.4969Z" fill="url(#paint1_linear_81_707)"/>
</g>
</g>
<g id="Group_5">
<g id="Group_6">
<path id="Vector_3" d="M17.6875 30.625H12.8125C12.5639 30.625 12.3254 30.7237 12.1496 30.8995L9.11175 33.9375H6.18C5.78225 32.9499 4.81588 32.25 3.6875 32.25C2.20563 32.25 1 33.4556 1 34.9375C1 36.4194 2.20563 37.625 3.6875 37.625C4.86275 37.625 5.86175 36.8655 6.22587 35.8125H9.5C9.74862 35.8125 9.98713 35.7137 10.1629 35.538L13.2008 32.5H17.6875C18.2052 32.5 18.625 32.0804 18.625 31.5625C18.625 31.0446 18.2052 30.625 17.6875 30.625ZM3.6875 35.75C3.2395 35.75 2.875 35.3855 2.875 34.9375C2.875 34.4895 3.2395 34.125 3.6875 34.125C4.1355 34.125 4.5 34.4895 4.5 34.9375C4.5 35.3855 4.1355 35.75 3.6875 35.75Z" fill="url(#paint2_linear_81_707)"/>
</g>
</g>
<g id="Group_7">
<g id="Group_8">
<path id="Vector_4" d="M16.4375 23.375H6.57788C6.19625 22.3546 5.21425 21.625 4.0625 21.625C2.58063 21.625 1.375 22.8306 1.375 24.3125C1.375 25.7944 2.58063 27 4.0625 27C5.21425 27 6.19625 26.2704 6.57788 25.25H16.4375C16.9552 25.25 17.375 24.8304 17.375 24.3125C17.375 23.7946 16.9552 23.375 16.4375 23.375ZM4.0625 25.125C3.6145 25.125 3.25 24.7605 3.25 24.3125C3.25 23.8645 3.6145 23.5 4.0625 23.5C4.5105 23.5 4.875 23.8645 4.875 24.3125C4.875 24.7605 4.5105 25.125 4.0625 25.125Z" fill="url(#paint3_linear_81_707)"/>
</g>
</g>
<g id="Group_9">
<g id="Group_10">
<path id="Vector_5" d="M17.8124 15.5H13.3256L10.2879 12.462C10.1121 12.2862 9.87363 12.1875 9.625 12.1875H6.35088C5.98675 11.1345 4.98775 10.375 3.8125 10.375C2.33063 10.375 1.125 11.5806 1.125 13.0625C1.125 14.5444 2.33063 15.75 3.8125 15.75C4.94088 15.75 5.90725 15.0501 6.305 14.0625H9.23663L12.2745 17.1005C12.4503 17.2762 12.6888 17.375 12.9374 17.375H17.8124C18.3301 17.375 18.7499 16.9554 18.7499 16.4375C18.7499 15.9196 18.3301 15.5 17.8124 15.5ZM3.8125 13.875C3.3645 13.875 3 13.5105 3 13.0625C3 12.6145 3.3645 12.25 3.8125 12.25C4.2605 12.25 4.625 12.6145 4.625 13.0625C4.625 13.5105 4.2605 13.875 3.8125 13.875Z" fill="url(#paint4_linear_81_707)"/>
</g>
</g>
</g>
<defs>
<linearGradient id="paint0_linear_81_707" x1="40.75" y1="0" x2="40.75" y2="64" gradientUnits="userSpaceOnUse">
<stop stop-color="#00E7F0"/>
<stop offset="1" stop-color="#006DF0"/>
</linearGradient>
<linearGradient id="paint1_linear_81_707" x1="37.0455" y1="20.4295" x2="37.0455" y2="36.7994" gradientUnits="userSpaceOnUse">
<stop stop-color="#00E7F0"/>
<stop offset="1" stop-color="#006DF0"/>
</linearGradient>
<linearGradient id="paint2_linear_81_707" x1="9.8125" y1="30.625" x2="9.8125" y2="37.625" gradientUnits="userSpaceOnUse">
<stop stop-color="#00E7F0"/>
<stop offset="1" stop-color="#006DF0"/>
</linearGradient>
<linearGradient id="paint3_linear_81_707" x1="9.375" y1="21.625" x2="9.375" y2="27" gradientUnits="userSpaceOnUse">
<stop stop-color="#00E7F0"/>
<stop offset="1" stop-color="#006DF0"/>
</linearGradient>
<linearGradient id="paint4_linear_81_707" x1="9.93744" y1="10.375" x2="9.93744" y2="17.375" gradientUnits="userSpaceOnUse">
<stop stop-color="#00E7F0"/>
<stop offset="1" stop-color="#006DF0"/>
</linearGradient>
</defs>
</svg>
