<svg width="64" height="64" viewBox="0 0 64 64" fill="none" xmlns="http://www.w3.org/2000/svg">
<g id="Layer_2">
<path id="Vector" d="M59.514 12.9595L58.357 10.0449C58.7357 9.28013 58.9497 8.41975 58.9497 7.51013C58.9497 4.34987 56.3788 1.77875 53.2184 1.77875C50.058 1.77875 47.487 4.34975 47.487 7.51013C47.487 10.6705 50.058 13.2415 53.2184 13.2415C54.681 13.2415 56.0168 12.69 57.0304 11.7851L57.7713 13.6512C58.1228 14.5368 58.301 15.469 58.301 16.4219V58.8325C58.301 59.611 57.6678 60.2444 56.8893 60.2444C56.198 60.2444 55.605 59.7365 55.4954 59.0573L54.2159 32.7816C54.1906 32.2645 53.7515 31.8663 53.2339 31.8909C52.7168 31.9161 52.3179 32.3558 52.3431 32.8729L53.6249 59.194C53.6262 59.2209 53.6286 59.2478 53.6323 59.2745C53.8524 60.8964 55.2525 62.1195 56.8893 62.1195C58.7016 62.1195 60.176 60.645 60.176 58.8326V16.4219C60.1761 15.231 59.9534 14.0661 59.514 12.9595ZM53.2185 11.3665C51.0921 11.3665 49.3621 9.63663 49.3621 7.51013C49.3621 5.38363 51.092 3.65375 53.2185 3.65375C55.345 3.65375 57.0749 5.38363 57.0749 7.51013C57.0749 9.63663 55.3449 11.3665 53.2185 11.3665Z" fill="url(#paint0_linear_81_684)"/>
<path id="Vector_2" d="M40.531 25.4866H48.9155C49.8282 25.4866 50.6337 24.9059 50.9225 24.0408L53.7942 15.7509C53.9637 15.2616 53.7045 14.7276 53.2152 14.5581C52.7261 14.3886 52.192 14.6479 52.0225 15.1371L49.1487 23.4328C49.1472 23.4373 49.1457 23.4416 49.1442 23.4461C49.1116 23.5451 49.0196 23.6116 48.9154 23.6116H40.5309C38.918 23.6116 37.6057 24.9239 37.6057 26.5368C37.6057 28.1498 38.918 29.4619 40.5309 29.4619H51.8732C52.8727 29.4619 53.7584 28.8621 54.1291 27.934L56.5109 21.9739C56.703 21.493 56.469 20.9476 55.9882 20.7554C55.5072 20.5633 54.962 20.7973 54.7697 21.278L52.388 27.2381C52.3034 27.4499 52.1012 27.5868 51.8731 27.5868H40.5307C39.9517 27.5868 39.4806 27.1156 39.4806 26.5366C39.4806 25.9576 39.952 25.4866 40.531 25.4866Z" fill="url(#paint1_linear_81_684)"/>
<path id="Vector_3" d="M46.4692 30.293C46.1031 30.6591 46.1031 31.2527 46.4692 31.6187C46.7371 31.8867 46.7371 32.3226 46.4692 32.5905C46.2012 32.8585 45.7654 32.8585 45.4975 32.5905L44.374 31.4669C43.6272 30.7201 42.5574 30.5074 41.5817 30.9115C40.606 31.3158 40 32.2226 40 33.2786V34.8676C40 35.2465 39.6917 35.5547 39.3129 35.5547C38.934 35.5547 38.6256 35.2465 38.6256 34.8676V33.2786C38.6256 32.2226 38.0195 31.3156 37.0439 30.9115C36.0684 30.5075 34.9985 30.7201 34.2517 31.4669L33.1281 32.5905C32.8601 32.8585 32.4242 32.8585 32.1564 32.5905C31.8885 32.3225 31.8885 31.8866 32.1564 31.6187L33.2799 30.4951C34.0266 29.7484 34.2394 28.6785 33.8352 27.7029C33.4311 26.7272 32.5241 26.1212 31.4681 26.1212H29.8792C29.5004 26.1212 29.192 25.813 29.192 25.4341C29.192 25.0553 29.5002 24.747 29.8792 24.747H31.4681C32.5241 24.747 33.4311 24.1409 33.8352 23.1654C34.2394 22.1899 34.0265 21.1199 33.2799 20.3731L32.1564 19.2496C31.8884 18.9816 31.8884 18.5457 32.1564 18.2777C32.4244 18.0097 32.8602 18.0097 33.1281 18.2777L34.2517 19.4014C34.9984 20.1481 36.0682 20.3609 37.0439 19.9568C38.0195 19.5526 38.6256 18.6456 38.6256 17.5896V16.0006C38.6256 15.6218 38.9339 15.3135 39.3129 15.3135C39.6919 15.3135 40 15.6218 40 16.0006V17.5896C40 18.6456 40.6061 19.5526 41.5816 19.9568C42.5571 20.3609 43.6271 20.148 44.3739 19.4014L45.4974 18.2777C45.7654 18.0097 46.2012 18.0097 46.4691 18.2777C46.7371 18.5457 46.7371 18.9816 46.4691 19.2496L45.3456 20.3731C44.9795 20.7392 44.9795 21.3329 45.3456 21.6989C45.7117 22.065 46.3054 22.065 46.6714 21.6989L47.795 20.5754C48.7939 19.5764 48.7939 17.9509 47.795 16.9519C46.796 15.9529 45.1705 15.9529 44.1716 16.9519L43.0481 18.0755C42.755 18.3686 42.4269 18.2774 42.2992 18.2244C42.1717 18.1716 41.875 18.0039 41.875 17.5895V16.0005C41.875 14.5877 40.7256 13.4384 39.3129 13.4384C37.9001 13.4384 36.7506 14.5877 36.7506 16.0005V17.5895C36.7506 18.0039 36.4539 18.1715 36.3264 18.2244C36.1987 18.2772 35.8704 18.3683 35.5775 18.0755L34.4539 16.9519C33.455 15.9529 31.8294 15.9529 30.8304 16.9519C29.8315 17.9509 29.8315 19.5764 30.8304 20.5754L31.9539 21.6989C32.2469 21.9919 32.1556 22.3202 32.1029 22.4477C32.05 22.5754 31.8824 22.872 31.468 22.872H29.8791C28.4664 22.872 27.3169 24.0214 27.3169 25.4341C27.3169 26.8469 28.4662 27.9962 29.8791 27.9962H31.468C31.8824 27.9962 32.05 28.2929 32.1029 28.4205C32.1556 28.5481 32.2469 28.8764 31.9539 29.1694L30.8304 30.293C29.8314 31.292 29.8314 32.9175 30.8304 33.9164C31.8294 34.9154 33.4549 34.9154 34.4537 33.9164L35.5774 32.7927C35.8704 32.4996 36.1986 32.5909 36.3262 32.6439C36.4537 32.6966 36.7505 32.8643 36.7505 33.2787V34.8677C36.7505 36.2805 37.8999 37.4299 39.3127 37.4299C40.7256 37.4299 41.875 36.2804 41.875 34.8676V33.2786C41.875 32.8643 42.1716 32.6966 42.2992 32.6437C42.4269 32.5909 42.7551 32.4996 43.0481 32.7926L44.1716 33.9162C45.1706 34.9152 46.796 34.9152 47.795 33.9162C48.794 32.9172 48.794 31.2917 47.795 30.2929C47.429 29.9269 46.8354 29.9269 46.4692 30.293Z" fill="url(#paint2_linear_81_684)"/>
<path id="Vector_4" d="M52.2598 59.7622C51.446 59.5517 50.8708 58.8167 50.861 57.9746L50.5933 34.9154C50.5873 34.4014 50.1688 33.9888 49.656 33.9888C49.6523 33.9888 49.6485 33.9888 49.6449 33.9888C49.1271 33.9948 48.7124 34.4194 48.7183 34.937L48.986 57.9962C49.0056 59.6829 50.1586 61.1555 51.7901 61.5775C51.8689 61.5979 51.9479 61.6076 52.0255 61.6076C52.4425 61.6076 52.8231 61.3271 52.9325 60.9046C53.0623 60.4034 52.761 59.8919 52.2598 59.7622Z" fill="url(#paint3_linear_81_684)"/>
<path id="Vector_5" d="M30.3964 51.0481C29.7949 51.0481 29.3054 50.5586 29.3054 49.9571C29.3054 49.4394 28.8856 49.0196 28.3679 49.0196C27.8501 49.0196 27.4304 49.4394 27.4304 49.9571C27.4304 51.5925 28.761 52.9231 30.3964 52.9231C32.0317 52.9231 33.3624 51.5925 33.3624 49.9571C33.3624 48.3218 32.0317 46.9911 30.3964 46.9911C29.8786 46.9911 29.4589 47.4109 29.4589 47.9286C29.4589 48.4464 29.8786 48.8661 30.3964 48.8661C30.9979 48.8661 31.4874 49.3556 31.4874 49.9571C31.4874 50.5586 30.998 51.0481 30.3964 51.0481Z" fill="url(#paint4_linear_81_684)"/>
<path id="Vector_6" d="M45.0361 60.4555H41.8303V40.3335C41.8303 39.8158 41.4105 39.396 40.8928 39.396C40.375 39.396 39.9553 39.8158 39.9553 40.3335V60.4555H34.4166C34.2534 59.0828 33.8866 57.9638 33.585 57.2281C36.4341 55.9913 38.4325 53.1515 38.4325 49.8528C38.4325 47.9436 37.7514 46.093 36.5145 44.6419C36.1786 44.2478 35.5869 44.2008 35.1929 44.5365C34.7988 44.8724 34.7516 45.464 35.0875 45.8581C36.0354 46.9704 36.5575 48.3891 36.5575 49.8529C36.5575 53.2506 33.7933 56.0149 30.3955 56.0149C29.0895 56.0149 27.8421 55.6118 26.7881 54.8491C26.3688 54.5455 25.7825 54.6398 25.479 55.0591C25.1755 55.4786 25.2695 56.0648 25.689 56.3683C27.0649 57.3638 28.6924 57.8899 30.3955 57.8899C30.8666 57.8899 31.3278 57.8468 31.7769 57.7686C32.0181 58.3255 32.3585 59.269 32.526 60.4555H22.724C22.2455 58.3578 21.5459 56.9504 20.5553 56.1044L23.6776 55.288C24.0903 55.1801 24.378 54.8075 24.378 54.381C24.378 50.9778 26.2419 47.8659 29.2421 46.2598L35.4584 42.9319C35.7631 42.7686 35.9534 42.451 35.9534 42.1054V37.4285C35.9534 36.9108 35.5336 36.491 35.0159 36.491H30.5293C27.1374 36.491 24.378 33.7315 24.378 30.3398V23.528C24.378 21.8849 25.0179 20.3403 26.1798 19.1784L30.9424 14.4158C32.4396 12.9185 33.2641 10.9279 33.2641 8.8105V3.28713C33.2641 2.7715 32.8478 2.35263 32.3321 2.34963C25.5278 2.30988 20.2544 4.10675 16.6489 7.69113C11.1653 13.1426 11.1653 21.0836 11.1653 23.6931C11.1653 26.7609 8.41039 29.1345 6.19689 31.0418C4.86614 32.1885 3.81489 33.0941 3.44214 34.0588C3.20264 34.6788 3.22664 35.3348 3.51151 35.956C4.11339 37.2685 5.81951 38.2036 6.84614 38.6666C6.65551 39.3323 6.36301 40.0534 6.05526 40.2963C5.70589 40.5719 5.50451 40.9716 5.48826 41.4221C5.45439 42.3626 6.28564 43.4206 6.94101 44.1041C6.04576 46.0825 6.18876 46.5113 6.26876 46.7513C6.40601 47.1633 6.73976 47.4361 7.68476 48.1643C7.97914 48.3911 8.46564 48.7659 8.74589 49.0218C8.37389 50.2564 7.99226 52.9168 8.78614 54.9206C9.35164 56.3481 10.4251 57.2828 11.8904 57.6235C13.1709 57.9211 14.4505 57.6368 15.6881 57.3616C17.0586 57.0569 18.2424 56.7938 19.1161 57.3645C19.8199 57.8241 20.3823 58.8636 20.7941 60.4558H16.3251C15.8074 60.4558 15.3876 60.8755 15.3876 61.3933C15.3876 61.911 15.8074 62.3308 16.3251 62.3308H45.036C45.5538 62.3308 45.9735 61.911 45.9735 61.3933C45.9735 60.8755 45.554 60.4555 45.0361 60.4555ZM8.91201 48.5618C8.93201 48.5136 8.95739 48.4653 8.98939 48.4171C8.96526 48.4535 8.93926 48.502 8.91201 48.5618ZM15.8529 55.3956C15.8193 55.4045 15.7865 55.415 15.7548 55.427C15.5953 55.4611 15.4373 55.4963 15.2815 55.5309C14.2009 55.771 13.1803 55.9978 12.3151 55.7968C11.5448 55.6176 11.0006 55.1944 10.6518 54.5026C9.77114 52.7568 10.3865 49.8919 10.5919 49.3869C10.7033 49.1835 10.87 48.7145 10.4781 48.1513C10.3675 47.9923 10.2149 47.8256 9.99776 47.6268C9.66864 47.3253 9.24201 46.9965 8.82939 46.6786C8.62126 46.5183 8.34226 46.3031 8.14839 46.1418C8.23114 45.8833 8.38414 45.4926 8.56739 45.0704L10.706 45.833C10.8101 45.8701 10.9164 45.8878 11.0209 45.8878C11.4061 45.8878 11.7671 45.6485 11.9039 45.2649C12.0778 44.7773 11.8234 44.2409 11.3358 44.067L8.57189 43.0814C8.04439 42.5738 7.54651 41.9423 7.40239 41.6049C8.40151 40.6315 8.79364 38.6694 8.86526 38.2659C8.94514 37.8159 8.68789 37.3735 8.25751 37.2193C7.21164 36.8445 5.57664 35.962 5.21576 35.1734C5.14114 35.0101 5.13414 34.883 5.19151 34.7344C5.39489 34.208 6.42501 33.3204 7.42114 32.4621C9.79264 30.4188 13.0406 27.6203 13.0406 23.693C13.0406 21.2764 13.0406 13.9224 17.9711 9.02075C21.0478 5.96213 25.5585 4.35288 31.3895 4.23138V8.81025C31.3895 10.4269 30.76 11.9466 29.6169 13.0898L24.8543 17.8524C23.3383 19.3684 22.5034 21.3839 22.5034 23.5279V30.3396C22.5034 34.7654 26.104 38.3659 30.5296 38.3659H34.0788V41.5438L28.3575 44.6066C24.9623 46.4243 22.7763 49.8439 22.5271 53.6508L15.8529 55.3956Z" fill="url(#paint5_linear_81_684)"/>
</g>
<defs>
<linearGradient id="paint0_linear_81_684" x1="53.8315" y1="1.77875" x2="53.8315" y2="62.1195" gradientUnits="userSpaceOnUse">
<stop stop-color="#00E7F0"/>
<stop offset="1" stop-color="#006DF0"/>
</linearGradient>
<linearGradient id="paint1_linear_81_684" x1="47.0919" y1="14.5062" x2="47.0919" y2="29.4619" gradientUnits="userSpaceOnUse">
<stop stop-color="#00E7F0"/>
<stop offset="1" stop-color="#006DF0"/>
</linearGradient>
<linearGradient id="paint2_linear_81_684" x1="37.9306" y1="13.4384" x2="37.9306" y2="37.4299" gradientUnits="userSpaceOnUse">
<stop stop-color="#00E7F0"/>
<stop offset="1" stop-color="#006DF0"/>
</linearGradient>
<linearGradient id="paint3_linear_81_684" x1="50.8404" y1="33.9888" x2="50.8404" y2="61.6076" gradientUnits="userSpaceOnUse">
<stop stop-color="#00E7F0"/>
<stop offset="1" stop-color="#006DF0"/>
</linearGradient>
<linearGradient id="paint4_linear_81_684" x1="30.3964" y1="46.9911" x2="30.3964" y2="52.9231" gradientUnits="userSpaceOnUse">
<stop stop-color="#00E7F0"/>
<stop offset="1" stop-color="#006DF0"/>
</linearGradient>
<linearGradient id="paint5_linear_81_684" x1="24.6261" y1="2.34898" x2="24.6261" y2="62.3308" gradientUnits="userSpaceOnUse">
<stop stop-color="#00E7F0"/>
<stop offset="1" stop-color="#006DF0"/>
</linearGradient>
</defs>
</svg>
