<svg width="64" height="64" viewBox="0 0 64 64" fill="none" xmlns="http://www.w3.org/2000/svg">
<g id="Layer_5">
<path id="Vector" d="M48.76 15.24C47.135 13.616 45.102 12.479 43.183 12.122L42.817 14.089C44.349 14.374 46 15.31 47.346 16.654C48.177 17.485 48.862 18.444 49.327 19.427L51.135 18.572C50.572 17.385 49.751 16.232 48.76 15.24Z" fill="url(#paint0_linear_81_444)"/>
<path id="Vector_2" d="M51.583 19.685L49.686 20.316C49.802 20.664 49.887 21.008 49.939 21.339C49.969 21.527 49.996 21.762 50 22.018L52 21.983C51.994 21.624 51.956 21.294 51.915 21.029C51.844 20.588 51.733 20.136 51.583 19.685Z" fill="url(#paint1_linear_81_444)"/>
<path id="Vector_3" d="M33.262 29.459L32.848 27.502C32.234 27.632 31.599 27.738 30.959 27.818L31.207 29.802C31.902 29.716 32.594 29.601 33.262 29.459Z" fill="url(#paint2_linear_81_444)"/>
<path id="Vector_4" d="M29.134 29.977L29.047 27.979C28.722 27.992 28.393 28 28.059 28C27.75 28 27.435 27.995 27.127 27.984L27.056 29.982C27.389 29.995 27.719 30 28.061 30C28.421 30 28.779 29.992 29.134 29.977Z" fill="url(#paint3_linear_81_444)"/>
<path id="Vector_5" d="M25.213 27.84C24.577 27.766 23.941 27.665 23.323 27.539L22.924 29.498C23.598 29.636 24.291 29.746 24.983 29.826L25.213 27.84Z" fill="url(#paint4_linear_81_444)"/>
<path id="Vector_6" d="M17.976 25.624C17.416 25.317 16.882 24.982 16.389 24.626L15.219 26.249C15.78 26.652 16.384 27.032 17.016 27.378L17.976 25.624Z" fill="url(#paint5_linear_81_444)"/>
<path id="Vector_7" d="M14.961 23.438C14.509 23.003 14.101 22.542 13.748 22.066L12.142 23.257C12.561 23.821 13.042 24.367 13.574 24.879L14.961 23.438Z" fill="url(#paint6_linear_81_444)"/>
<path id="Vector_8" d="M21.473 27.073C20.859 26.887 20.256 26.674 19.682 26.436L18.919 28.286C19.554 28.548 20.219 28.783 20.896 28.987L21.473 27.073Z" fill="url(#paint7_linear_81_444)"/>
<path id="Vector_9" d="M37 39C37 37.346 35.654 36 34 36C32.346 36 31 37.346 31 39C31 40.654 32.346 42 34 42C35.654 42 37 40.654 37 39ZM34 40C33.449 40 33 39.552 33 39C33 38.448 33.449 38 34 38C34.551 38 35 38.448 35 39C35 39.552 34.551 40 34 40Z" fill="url(#paint8_linear_81_444)"/>
<path id="Vector_10" d="M39 44C37.346 44 36 45.346 36 47C36 48.654 37.346 50 39 50C40.654 50 42 48.654 42 47C42 45.346 40.654 44 39 44ZM39 48C38.449 48 38 47.552 38 47C38 46.448 38.449 46 39 46C39.551 46 40 46.448 40 47C40 47.552 39.551 48 39 48Z" fill="url(#paint9_linear_81_444)"/>
<path id="Vector_11" d="M63.414 6L58 0.585999L49 9.586V0.999999H43V4.384C40.754 2.272 37.482 0.999999 34 0.999999C27.62 0.999999 22.402 5.174 22.036 10.415C13.45 13.433 7.25801 20.806 5.81301 29.839L1.23601 58.445C1.04501 59.634 1.44001 60.854 2.29301 61.707C3.00401 62.418 3.97001 62.811 4.96201 62.811C5.15901 62.811 5.35801 62.796 5.55501 62.764L34.161 58.187C41.422 57.026 47.665 52.791 51.441 46.522C52.249 46.835 53.107 47 54 47C58.962 47 63 42.065 63 36C63 30.55 59.736 26.025 55.475 25.161C55.938 23.919 56.09 22.508 55.932 21H63V15H54.414L63.414 6ZM36.997 27.002C36.304 26.309 35.695 25.554 35.128 24.774C35.785 24.529 36.413 24.256 36.993 23.947C37.43 24.516 37.895 25.072 38.411 25.588C41.283 28.46 44.886 29.978 48.1 29.978C49.694 29.978 51.191 29.6 52.456 28.832C52.607 29.513 52.721 30.199 52.808 30.889C51.385 31.604 49.774 32 48.089 32C44.216 32 40.173 30.179 36.997 27.002ZM16.181 15.859C17.961 14.463 19.967 13.327 22.149 12.498C22.336 13.541 22.703 14.549 23.278 15.502L24.539 17H25.577C26.492 17 27.351 16.644 27.998 15.997C28.644 15.351 29 14.49 29 13.576V13.21L28.764 12.931C28.293 12.374 28.04 11.749 28.012 11.117C30.562 10.867 33.17 11.048 35.679 11.663C38.423 13.019 40 14.958 40 17C40 20.794 34.505 24 28 24C21.495 24 16 20.794 16 17C16 16.624 16.069 16.242 16.181 15.859ZM28.793 9.05C29.838 7.838 31.802 7 34 7C35.864 7 37.611 7.607 38.738 8.577C37.965 8.88 37.251 9.295 36.617 9.834C34.07 9.155 31.413 8.898 28.793 9.05ZM54.859 31.238C56.062 31.883 57 33.795 57 36C57 38.71 55.626 41 54 41C53.966 41 53.932 40.991 53.898 40.989C54.615 38.646 55 36.22 55 33.749C55 32.91 54.944 32.072 54.859 31.238ZM52.365 26.391L52.346 26.409C49.485 29.22 43.871 28.218 39.825 24.175C39.412 23.762 39.037 23.321 38.681 22.871C40.755 21.304 42 19.264 42 17C42 14.725 40.708 12.613 38.418 10.983C39.704 10.128 41.39 9.815 43.284 10.111C45.715 10.496 48.162 11.815 50.174 13.827C52.186 15.839 53.505 18.285 53.889 20.717C54.254 23.029 53.719 25.041 52.365 26.391ZM60.586 6L52.804 13.783C52.425 13.311 52.026 12.85 51.589 12.413C51.152 11.976 50.69 11.576 50.218 11.198L58 3.414L60.586 6ZM47 3V9.191C46.343 8.889 45.675 8.644 45 8.454V3H47ZM34 3C37.839 3 41.333 4.782 43 7.546V8.068C42.296 7.994 41.615 7.989 40.96 8.054C39.561 6.188 36.915 5 34 5C29.589 5 26 7.691 26 11C26 12.016 26.333 13.003 26.968 13.879C26.911 14.144 26.779 14.387 26.583 14.583C26.314 14.852 25.957 15 25.576 15H25.461L24.949 14.399C24.319 13.332 24 12.189 24 11C24 6.589 28.486 3 34 3ZM14.057 17.745C14.63 22.43 20.541 26 28 26C29.81 26 31.522 25.782 33.096 25.397C33.822 26.47 34.651 27.485 35.583 28.416C36.249 29.082 36.96 29.676 37.689 30.232C34.782 31.388 31.471 32 28 32C19.995 32 13.128 28.777 9.90901 23.565C10.982 21.409 12.377 19.444 14.057 17.745ZM33.845 56.212L5.23801 60.789C4.67901 60.875 4.10701 60.693 3.70701 60.293C3.30701 59.893 3.12201 59.32 3.21101 58.762L7.78801 30.156C8.03301 28.622 8.43301 27.142 8.96201 25.727C12.624 30.656 19.294 33.728 27 33.975V36.366C27 42.063 29.046 47.358 32.761 51.275C34.32 52.918 36.061 54.213 37.95 55.157C36.631 55.626 35.26 55.986 33.845 56.212ZM40.49 54.068C38.166 53.235 36.054 51.837 34.212 49.897C30.851 46.354 29 41.548 29 36.364V33.974C32.848 33.852 36.498 33.026 39.65 31.561C42.319 33.132 45.235 34 48.09 34C49.802 34 51.463 33.668 52.975 33.035C52.982 33.273 53 33.511 53 33.749C53 35.837 52.704 37.891 52.147 39.881C51.887 39.534 51.654 39.121 51.469 38.641L50.599 37H49C47.346 37 46 38.346 46 40V40.173L46.058 40.335C46.874 42.628 48.14 44.409 49.691 45.552C47.445 49.255 44.259 52.176 40.49 54.068ZM61 36C61 40.963 57.86 45 54 45C51.445 45 49.217 43.08 48.011 39.853C48.082 39.371 48.499 39 49 39H49.401L49.626 39.42C50.498 41.63 52.169 43 54 43C56.804 43 59 39.925 59 36C59 32.333 57.083 29.41 54.544 29.041C54.437 28.488 54.313 27.937 54.168 27.391C54.267 27.276 54.351 27.15 54.442 27.029C58.096 27.325 61 31.229 61 36ZM61 19H55.546C55.357 18.325 55.111 17.657 54.809 17H61V19Z" fill="url(#paint10_linear_81_444)"/>
<path id="Vector_12" d="M12.198 52.409L24.198 36.409L25.7972 37.6084L13.7972 53.6084L12.198 52.409Z" fill="url(#paint11_linear_81_444)"/>
<path id="Vector_13" d="M5.9877 52.7844L10.0419 35.7813L11.9879 36.2453L7.9337 53.2484L5.9877 52.7844Z" fill="url(#paint12_linear_81_444)"/>
<path id="Vector_14" d="M5.03873 56.7957L5.51559 54.7957L7.46105 55.2596L6.98419 57.2595L5.03873 56.7957Z" fill="url(#paint13_linear_81_444)"/>
<path id="Vector_15" d="M28.8006 52.4521L30.801 52.0524L31.1929 54.0137L29.1924 54.4134L28.8006 52.4521Z" fill="url(#paint14_linear_81_444)"/>
<path id="Vector_16" d="M10.7924 56.0494L26.7994 52.8512L27.1914 54.8132L11.1844 58.0114L10.7924 56.0494Z" fill="url(#paint15_linear_81_444)"/>
</g>
<defs>
<linearGradient id="paint0_linear_81_444" x1="46.976" y1="12.122" x2="46.976" y2="19.427" gradientUnits="userSpaceOnUse">
<stop stop-color="#00E7F0"/>
<stop offset="1" stop-color="#006DF0"/>
</linearGradient>
<linearGradient id="paint1_linear_81_444" x1="50.843" y1="19.685" x2="50.843" y2="22.018" gradientUnits="userSpaceOnUse">
<stop stop-color="#00E7F0"/>
<stop offset="1" stop-color="#006DF0"/>
</linearGradient>
<linearGradient id="paint2_linear_81_444" x1="32.1105" y1="27.502" x2="32.1105" y2="29.802" gradientUnits="userSpaceOnUse">
<stop stop-color="#00E7F0"/>
<stop offset="1" stop-color="#006DF0"/>
</linearGradient>
<linearGradient id="paint3_linear_81_444" x1="28.095" y1="27.979" x2="28.095" y2="30" gradientUnits="userSpaceOnUse">
<stop stop-color="#00E7F0"/>
<stop offset="1" stop-color="#006DF0"/>
</linearGradient>
<linearGradient id="paint4_linear_81_444" x1="24.0685" y1="27.539" x2="24.0685" y2="29.826" gradientUnits="userSpaceOnUse">
<stop stop-color="#00E7F0"/>
<stop offset="1" stop-color="#006DF0"/>
</linearGradient>
<linearGradient id="paint5_linear_81_444" x1="16.5975" y1="24.626" x2="16.5975" y2="27.378" gradientUnits="userSpaceOnUse">
<stop stop-color="#00E7F0"/>
<stop offset="1" stop-color="#006DF0"/>
</linearGradient>
<linearGradient id="paint6_linear_81_444" x1="13.5515" y1="22.066" x2="13.5515" y2="24.879" gradientUnits="userSpaceOnUse">
<stop stop-color="#00E7F0"/>
<stop offset="1" stop-color="#006DF0"/>
</linearGradient>
<linearGradient id="paint7_linear_81_444" x1="20.196" y1="26.436" x2="20.196" y2="28.987" gradientUnits="userSpaceOnUse">
<stop stop-color="#00E7F0"/>
<stop offset="1" stop-color="#006DF0"/>
</linearGradient>
<linearGradient id="paint8_linear_81_444" x1="34" y1="36" x2="34" y2="42" gradientUnits="userSpaceOnUse">
<stop stop-color="#00E7F0"/>
<stop offset="1" stop-color="#006DF0"/>
</linearGradient>
<linearGradient id="paint9_linear_81_444" x1="39" y1="44" x2="39" y2="50" gradientUnits="userSpaceOnUse">
<stop stop-color="#00E7F0"/>
<stop offset="1" stop-color="#006DF0"/>
</linearGradient>
<linearGradient id="paint10_linear_81_444" x1="32.3014" y1="0.585999" x2="32.3014" y2="62.811" gradientUnits="userSpaceOnUse">
<stop stop-color="#00E7F0"/>
<stop offset="1" stop-color="#006DF0"/>
</linearGradient>
<linearGradient id="paint11_linear_81_444" x1="18.198" y1="44.409" x2="19.7972" y2="45.6084" gradientUnits="userSpaceOnUse">
<stop stop-color="#00E7F0"/>
<stop offset="1" stop-color="#006DF0"/>
</linearGradient>
<linearGradient id="paint12_linear_81_444" x1="8.0148" y1="44.2828" x2="9.9608" y2="44.7468" gradientUnits="userSpaceOnUse">
<stop stop-color="#00E7F0"/>
<stop offset="1" stop-color="#006DF0"/>
</linearGradient>
<linearGradient id="paint13_linear_81_444" x1="5.27716" y1="55.7957" x2="7.22262" y2="56.2596" gradientUnits="userSpaceOnUse">
<stop stop-color="#00E7F0"/>
<stop offset="1" stop-color="#006DF0"/>
</linearGradient>
<linearGradient id="paint14_linear_81_444" x1="29.8008" y1="52.2523" x2="30.1926" y2="54.2135" gradientUnits="userSpaceOnUse">
<stop stop-color="#00E7F0"/>
<stop offset="1" stop-color="#006DF0"/>
</linearGradient>
<linearGradient id="paint15_linear_81_444" x1="18.7959" y1="54.4503" x2="19.1879" y2="56.4123" gradientUnits="userSpaceOnUse">
<stop stop-color="#00E7F0"/>
<stop offset="1" stop-color="#006DF0"/>
</linearGradient>
</defs>
</svg>
