<svg width="64" height="64" viewBox="0 0 64 64" fill="none" xmlns="http://www.w3.org/2000/svg">
<g id="Capa_1" clip-path="url(#clip0_81_406)">
<g id="Group">
<path id="Vector" d="M46.5327 31.0156C44.8664 26.9052 40.8354 24.0134 36.1346 24.0425C30.1377 24.0796 25.207 28.9346 25.0616 34.9518C24.9898 37.9205 26.0707 40.6349 27.8868 42.6766C29.3345 44.3043 30.0611 46.448 29.9878 48.6288C29.9781 48.9186 29.9766 49.2106 29.9838 49.5044C30.1754 57.4179 36.9109 64.0048 44.7977 64C52.9725 63.9951 59.5979 57.3422 59.5979 49.1363C59.5979 43.1212 56.0379 37.9413 50.9174 35.6019C48.9216 34.6902 47.3591 33.0541 46.5327 31.0156Z" fill="url(#paint0_linear_81_406)"/>
<path id="Vector_2" opacity="0.1" d="M57 11.0396V42.8209C57 43.8559 56.16 44.6959 55.125 44.6959H8.875C7.84 44.6959 7 43.8559 7 42.8209V11.0396C7 10.0046 7.84 9.16461 8.875 9.16461H55.125C56.16 9.16461 57 10.0046 57 11.0396Z" fill="url(#paint1_linear_81_406)"/>
<path id="Vector_3" d="M39.9171 8.3495C39.7514 8.3495 39.5924 8.28362 39.4753 8.1665L38.098 6.78925C37.8539 6.54512 37.8539 6.14937 38.098 5.90537L39.4753 4.52812C39.5925 4.41087 39.7514 4.34512 39.9171 4.34512C40.0829 4.34512 40.2419 4.411 40.359 4.52812L41.7364 5.90537C41.8536 6.02262 41.9195 6.1815 41.9195 6.34737C41.9195 6.51325 41.8538 6.67212 41.7364 6.78937L40.359 8.16662C40.2419 8.28362 40.0829 8.3495 39.9171 8.3495ZM39.4239 6.34725L39.9171 6.84062L40.4105 6.34725L39.9171 5.85387L39.4239 6.34725Z" fill="url(#paint2_linear_81_406)"/>
<path id="Vector_4" d="M47.7562 54.56C47.5905 54.56 47.4315 54.4941 47.3144 54.377L45.9371 52.9998C45.693 52.7556 45.693 52.3599 45.9371 52.1159L47.3144 50.7386C47.5582 50.4946 47.954 50.4946 48.1981 50.7386L49.5755 52.1159C49.6927 52.2331 49.7586 52.392 49.7586 52.5579C49.7586 52.7238 49.6929 52.8826 49.5755 52.9999L48.1981 54.3771C48.0809 54.4941 47.922 54.56 47.7562 54.56ZM47.263 52.5578L47.7562 53.0511L48.2496 52.5578L47.7562 52.0644L47.263 52.5578Z" fill="url(#paint3_linear_81_406)"/>
<path id="Vector_5" d="M13.3355 59.655C12.9903 59.655 12.7105 59.3751 12.7105 59.03C12.7105 58.6153 12.373 58.2778 11.9581 58.2778C11.6129 58.2778 11.3331 57.9979 11.3331 57.6528C11.3331 57.3076 11.6129 57.0278 11.9581 57.0278C12.3729 57.0278 12.7105 56.6903 12.7105 56.2755C12.7105 55.9304 12.9903 55.6505 13.3355 55.6505C13.6808 55.6505 13.9605 55.9304 13.9605 56.2755C13.9605 56.6903 14.2979 57.0278 14.7128 57.0278C15.058 57.0278 15.3378 57.3076 15.3378 57.6528C15.3378 57.9979 15.058 58.2778 14.7128 58.2778C14.298 58.2778 13.9605 58.6153 13.9605 59.03C13.9605 59.3751 13.6806 59.655 13.3355 59.655Z" fill="url(#paint4_linear_81_406)"/>
<path id="Vector_6" d="M18.752 53.8553C18.4068 53.8553 18.127 53.5754 18.127 53.2303C18.127 52.8155 17.7896 52.478 17.3748 52.478C17.0295 52.478 16.7498 52.1981 16.7498 51.853C16.7498 51.5079 17.0295 51.228 17.3748 51.228C17.7895 51.228 18.127 50.8905 18.127 50.4758C18.127 50.1306 18.4068 49.8508 18.752 49.8508C19.0973 49.8508 19.377 50.1306 19.377 50.4758C19.377 50.8905 19.7145 51.228 20.1294 51.228C20.4746 51.228 20.7544 51.5079 20.7544 51.853C20.7544 52.1981 20.4746 52.478 20.1294 52.478C19.7146 52.478 19.377 52.8155 19.377 53.2303C19.377 53.5755 19.0971 53.8553 18.752 53.8553Z" fill="url(#paint5_linear_81_406)"/>
<path id="Vector_7" d="M39.0888 56.4093H24.9111L26.7589 49.0839L27.7464 45.1713H36.2535L37.241 49.0839L39.0888 56.4093Z" fill="#1E212C"/>
<path id="Vector_8" d="M39.0893 57.0335H24.9108C24.718 57.0335 24.5361 56.9446 24.4178 56.7926C24.2994 56.6406 24.2576 56.4425 24.3049 56.2556L26.5364 47.4126C26.6209 47.0779 26.9606 46.8754 27.2953 46.9595C27.6299 47.044 27.8328 47.3837 27.7483 47.7184L25.7131 55.7835H38.2871L36.2339 47.6464C36.1494 47.3117 36.3523 46.9719 36.6869 46.8875C37.022 46.8032 37.3614 47.0059 37.4458 47.3406L39.6953 56.2556C39.7425 56.4425 39.7008 56.6406 39.5824 56.7926C39.464 56.9446 39.282 57.0335 39.0893 57.0335Z" fill="url(#paint6_linear_81_406)"/>
<path id="Vector_9" d="M57 13.6646V45.4459C57 46.4809 56.16 47.3209 55.125 47.3209H8.875C7.84 47.3209 7 46.4809 7 45.4459V13.6646C7 12.6296 7.84 11.7896 8.875 11.7896H55.125C56.16 11.7896 57 12.6296 57 13.6646Z" fill="#1E212C"/>
<path id="Vector_10" d="M55.125 11.7896H44.375V47.3209H55.125C56.16 47.3209 57 46.4809 57 45.4459V13.6646C57 12.6296 56.16 11.7896 55.125 11.7896Z" fill="#1E212C"/>
<path id="Vector_11" d="M54.6875 23.6834L53.7888 20.5271C53.7125 20.2584 53.4663 20.0721 53.1875 20.0721H50.1375C49.8588 20.0721 49.6125 20.2584 49.5363 20.5271L48.6375 23.6834C47.3775 23.9921 46.1913 24.4884 45.1113 25.1434L42.2438 23.5471C42 23.4109 41.695 23.4534 41.4975 23.6509L39.3413 25.8084C39.1438 26.0059 39.1013 26.3096 39.2363 26.5546L40.8338 29.4221C40.1788 30.5021 39.6813 31.6884 39.3725 32.9471L36.2163 33.8471C35.9475 33.9234 35.7625 34.1684 35.7625 34.4484V37.4984C35.7625 37.7771 35.9475 38.0221 36.2163 38.0996L39.3725 38.9984C39.5841 39.8621 39.8856 40.6907 40.2651 41.4746H49.3724C47.2184 40.577 45.7038 38.4529 45.7038 35.9734C45.7038 32.6821 48.3713 30.0146 51.6625 30.0146C54.0013 30.0146 56.0238 31.3609 57 33.3209V24.4959C56.265 24.1534 55.4913 23.8809 54.6875 23.6834Z" fill="#1E212C"/>
<g id="Group_2">
<path id="Vector_12" d="M52.4969 42.0996H39.8733L39.7025 41.747C39.3529 41.0247 39.0693 40.271 38.8576 39.5016L36.0451 38.7007C35.5099 38.5464 35.1375 38.0521 35.1375 37.4984V34.4484C35.1375 33.892 35.511 33.3975 36.0456 33.2459L38.8576 32.444C39.1486 31.3855 39.5699 30.3691 40.1138 29.4139L38.6903 26.8589C38.4213 26.3707 38.5078 25.7581 38.8991 25.3665L41.0554 23.2091C41.449 22.8154 42.063 22.7301 42.5486 23.0016L45.1029 24.4235C46.0569 23.8806 47.0736 23.4596 48.1343 23.1685L48.935 20.3561C49.0869 19.8211 49.5814 19.4472 50.1374 19.4472H53.1874C53.7435 19.4472 54.238 19.8212 54.3899 20.3566L55.1906 23.1686C55.9048 23.365 56.6006 23.6202 57.2639 23.9294L57.6249 24.0976V35.9776L56.4404 33.5995C55.5311 31.7737 53.7003 30.6396 51.6624 30.6396C48.7214 30.6396 46.3286 33.0324 46.3286 35.9734C46.3286 38.1334 47.6176 40.0664 49.6126 40.8977L52.4969 42.0996ZM40.6639 40.8496H47.2354C45.8841 39.6252 45.0788 37.8702 45.0788 35.9734C45.0788 32.3431 48.0321 29.3896 51.6625 29.3896C53.4766 29.3896 55.1576 30.1176 56.375 31.3689V24.9015C55.7844 24.6501 55.1683 24.4451 54.5384 24.2902L54.1859 24.2036L53.1878 20.6981L50.1376 20.697L49.1393 24.2039L48.7864 24.2904C47.6024 24.5805 46.475 25.0472 45.4355 25.6777L45.1249 25.8661L41.94 24.0931L39.7835 26.2501L41.5569 29.4354L41.3684 29.7461C40.7366 30.7877 40.2694 31.9147 39.9796 33.0959L39.8931 33.4484L36.3878 34.448L36.3876 37.4982L39.8931 38.4966L39.9796 38.8495C40.1466 39.5319 40.3764 40.2029 40.6639 40.8496Z" fill="url(#paint7_linear_81_406)"/>
</g>
<path id="Vector_13" d="M57 17.8114V13.665C57 12.6295 56.1605 11.79 55.125 11.79H8.875C7.8395 11.79 7 12.6295 7 13.665V17.8114H57Z" fill="#1E212C"/>
<path id="Vector_14" d="M57 18.4364H7C6.65475 18.4364 6.375 18.1565 6.375 17.8114C6.375 17.4662 6.65475 17.1864 7 17.1864H57C57.3452 17.1864 57.625 17.4662 57.625 17.8114C57.625 18.1565 57.3452 18.4364 57 18.4364Z" fill="url(#paint8_linear_81_406)"/>
<path id="Vector_15" d="M6.99988 41.0222V45.446C6.99988 46.4815 7.83938 47.321 8.87488 47.321H55.1249C56.1604 47.321 56.9999 46.4815 56.9999 45.446V41.0222H6.99988Z" fill="#1E212C"/>
<g id="Group_3">
<g id="Group_4">
<path id="Vector_16" d="M56.9309 41.6472H10.9948C10.6495 41.6472 10.3698 41.3674 10.3698 41.0222C10.3698 40.6771 10.6495 40.3972 10.9948 40.3972H56.9308C57.276 40.3972 57.5558 40.6771 57.5558 41.0222C57.5559 41.3674 57.2761 41.6472 56.9309 41.6472Z" fill="url(#paint9_linear_81_406)"/>
<path id="Vector_17" d="M41.4917 57.0335H22.5082C22.163 57.0335 21.8832 56.7536 21.8832 56.4085C21.8832 56.0634 22.163 55.7835 22.5082 55.7835H41.4916C41.8369 55.7835 42.1166 56.0634 42.1166 56.4085C42.1166 56.7536 41.8369 57.0335 41.4917 57.0335Z" fill="url(#paint10_linear_81_406)"/>
<path id="Vector_18" d="M11.7603 15.4349C11.415 15.4349 11.1353 15.155 11.1353 14.8099V14.7916C11.1353 14.4465 11.415 14.1666 11.7603 14.1666C12.1055 14.1666 12.3853 14.4465 12.3853 14.7916V14.8099C12.3853 15.155 12.1055 15.4349 11.7603 15.4349Z" fill="url(#paint11_linear_81_406)"/>
<path id="Vector_19" d="M14.1759 15.4349C13.8306 15.4349 13.5509 15.155 13.5509 14.8099V14.7916C13.5509 14.4465 13.8306 14.1666 14.1759 14.1666C14.5211 14.1666 14.8009 14.4465 14.8009 14.7916V14.8099C14.8009 15.155 14.5211 15.4349 14.1759 15.4349Z" fill="url(#paint12_linear_81_406)"/>
<path id="Vector_20" d="M16.5914 15.4349C16.2461 15.4349 15.9664 15.155 15.9664 14.8099V14.7916C15.9664 14.4465 16.2461 14.1666 16.5914 14.1666C16.9366 14.1666 17.2164 14.4465 17.2164 14.7916V14.8099C17.2164 15.155 16.9366 15.4349 16.5914 15.4349Z" fill="url(#paint13_linear_81_406)"/>
<path id="Vector_21" d="M55.125 47.9459H8.875C7.4965 47.9459 6.375 46.8244 6.375 45.4459V13.665C6.375 12.2865 7.4965 11.165 8.875 11.165H55.125C56.5035 11.165 57.625 12.2865 57.625 13.665V17.8114C57.625 18.1565 57.3452 18.4364 57 18.4364C56.6548 18.4364 56.375 18.1565 56.375 17.8114V13.665C56.375 12.9758 55.8143 12.415 55.125 12.415H8.875C8.18575 12.415 7.625 12.9758 7.625 13.665V45.446C7.625 46.1353 8.18575 46.696 8.875 46.696H55.125C55.8143 46.696 56.375 46.1353 56.375 45.446V21.254C56.375 20.9089 56.6548 20.629 57 20.629C57.3452 20.629 57.625 20.9089 57.625 21.254V45.446C57.625 46.8244 56.5035 47.9459 55.125 47.9459Z" fill="url(#paint14_linear_81_406)"/>
</g>
<path id="Vector_22" d="M32.4636 34.2839H11.6209C11.2751 34.2839 10.9949 34.0036 10.9949 33.6579C10.9949 33.3121 11.2751 33.0319 11.6209 33.0319H32.4636C32.8094 33.0319 33.0896 33.3121 33.0896 33.6579C33.0896 34.0036 32.8094 34.2839 32.4636 34.2839Z" fill="url(#paint15_linear_81_406)"/>
<path id="Vector_23" d="M24.9636 29.0349H11.6209C11.2751 29.0349 10.9949 28.7546 10.9949 28.4089C10.9949 28.0631 11.2751 27.7829 11.6209 27.7829H24.9636C25.3094 27.7829 25.5896 28.0631 25.5896 28.4089C25.5896 28.7546 25.3094 29.0349 24.9636 29.0349Z" fill="url(#paint16_linear_81_406)"/>
<path id="Vector_24" d="M32.4636 36.7671H11.6209C11.2751 36.7671 10.9949 36.4869 10.9949 36.1411C10.9949 35.7954 11.2751 35.5151 11.6209 35.5151H32.4636C32.8094 35.5151 33.0896 35.7954 33.0896 36.1411C33.0896 36.4868 32.8094 36.7671 32.4636 36.7671Z" fill="url(#paint17_linear_81_406)"/>
<path id="Vector_25" d="M13.2646 25.3078C13.1048 25.3078 12.9446 25.2468 12.8228 25.1248L11.3184 23.6204C11.0743 23.3763 11.0743 22.9805 11.3184 22.7365L12.8228 21.2321C13.0666 20.9881 13.4626 20.9881 13.7065 21.2321C13.9506 21.4763 13.9506 21.872 13.7065 22.116L12.6441 23.1785L13.7065 24.241C13.9506 24.4851 13.9506 24.8809 13.7065 25.1249C13.5846 25.2468 13.4245 25.3078 13.2646 25.3078Z" fill="url(#paint18_linear_81_406)"/>
<path id="Vector_26" d="M19.1099 25.3078C18.95 25.3078 18.7899 25.2468 18.668 25.1248C18.4239 24.8806 18.4239 24.4849 18.668 24.2409L19.7304 23.1784L18.668 22.1159C18.4239 21.8718 18.4239 21.476 18.668 21.232C18.9119 20.988 19.3079 20.988 19.5517 21.232L21.0561 22.7364C21.3002 22.9805 21.3002 23.3763 21.0561 23.6203L19.5517 25.1246C19.4297 25.2468 19.2697 25.3078 19.1099 25.3078Z" fill="url(#paint19_linear_81_406)"/>
<path id="Vector_27" d="M15.3371 25.3079C15.233 25.3079 15.1275 25.2819 15.0305 25.227C14.7299 25.0573 14.6238 24.676 14.7935 24.3754L16.4925 21.3666C16.6621 21.0661 17.0435 20.96 17.344 21.1296C17.6446 21.2994 17.7507 21.6806 17.581 21.9813L15.882 24.99C15.767 25.1935 15.5551 25.3079 15.3371 25.3079Z" fill="url(#paint20_linear_81_406)"/>
</g>
<path id="Vector_28" d="M47.3813 36.7671H45.3813C45.1741 36.7671 45.0063 36.5992 45.0063 36.3921V28.7839C45.0063 28.5767 45.1741 28.4089 45.3813 28.4089H47.3813C47.5884 28.4089 47.7563 28.5767 47.7563 28.7839V36.3921C47.7563 36.5992 47.5884 36.7671 47.3813 36.7671Z" fill="url(#paint21_linear_81_406)"/>
<path id="Vector_29" d="M43.2921 36.7671H41.2921C41.085 36.7671 40.9171 36.5992 40.9171 36.3921V31.685C40.9171 31.4779 41.085 31.31 41.2921 31.31H43.2921C43.4992 31.31 43.6671 31.4779 43.6671 31.685V36.3921C43.6671 36.5992 43.4992 36.7671 43.2921 36.7671Z" fill="url(#paint22_linear_81_406)"/>
<path id="Vector_30" d="M51.4704 36.7671H49.4704C49.2632 36.7671 49.0954 36.5992 49.0954 36.3921V26.5996C49.0954 26.3925 49.2632 26.2246 49.4704 26.2246H51.4704C51.6775 26.2246 51.8454 26.3925 51.8454 26.5996V36.3921C51.8454 36.5992 51.6775 36.7671 51.4704 36.7671Z" fill="url(#paint23_linear_81_406)"/>
<path id="Vector_31" d="M38.5926 22.4464C38.9785 22.4464 39.2914 22.1335 39.2914 21.7476C39.2914 21.3617 38.9785 21.0489 38.5926 21.0489C38.2067 21.0489 37.8939 21.3617 37.8939 21.7476C37.8939 22.1335 38.2067 22.4464 38.5926 22.4464Z" fill="url(#paint24_linear_81_406)"/>
<path id="Vector_32" d="M36.4787 22.4464C36.8647 22.4464 37.1775 22.1335 37.1775 21.7476C37.1775 21.3617 36.8647 21.0489 36.4787 21.0489C36.0928 21.0489 35.78 21.3617 35.78 21.7476C35.78 22.1335 36.0928 22.4464 36.4787 22.4464Z" fill="url(#paint25_linear_81_406)"/>
<path id="Vector_33" d="M34.365 22.4464C34.7509 22.4464 35.0638 22.1335 35.0638 21.7476C35.0638 21.3617 34.7509 21.0489 34.365 21.0489C33.9791 21.0489 33.6663 21.3617 33.6663 21.7476C33.6663 22.1335 33.9791 22.4464 34.365 22.4464Z" fill="url(#paint26_linear_81_406)"/>
</g>
</g>
<defs>
<linearGradient id="paint0_linear_81_406" x1="42.328" y1="24.0423" x2="42.328" y2="64" gradientUnits="userSpaceOnUse">
<stop stop-color="#00E7F0"/>
<stop offset="1" stop-color="#006DF0"/>
</linearGradient>
<linearGradient id="paint1_linear_81_406" x1="32" y1="9.16461" x2="32" y2="44.6959" gradientUnits="userSpaceOnUse">
<stop stop-color="#00E7F0"/>
<stop offset="1" stop-color="#006DF0"/>
</linearGradient>
<linearGradient id="paint2_linear_81_406" x1="39.9172" y1="4.34512" x2="39.9172" y2="8.3495" gradientUnits="userSpaceOnUse">
<stop stop-color="#00E7F0"/>
<stop offset="1" stop-color="#006DF0"/>
</linearGradient>
<linearGradient id="paint3_linear_81_406" x1="47.7563" y1="50.5556" x2="47.7563" y2="54.56" gradientUnits="userSpaceOnUse">
<stop stop-color="#00E7F0"/>
<stop offset="1" stop-color="#006DF0"/>
</linearGradient>
<linearGradient id="paint4_linear_81_406" x1="13.3354" y1="55.6505" x2="13.3354" y2="59.655" gradientUnits="userSpaceOnUse">
<stop stop-color="#00E7F0"/>
<stop offset="1" stop-color="#006DF0"/>
</linearGradient>
<linearGradient id="paint5_linear_81_406" x1="18.7521" y1="49.8508" x2="18.7521" y2="53.8553" gradientUnits="userSpaceOnUse">
<stop stop-color="#00E7F0"/>
<stop offset="1" stop-color="#006DF0"/>
</linearGradient>
<linearGradient id="paint6_linear_81_406" x1="32.0001" y1="46.8684" x2="32.0001" y2="57.0335" gradientUnits="userSpaceOnUse">
<stop stop-color="#00E7F0"/>
<stop offset="1" stop-color="#006DF0"/>
</linearGradient>
<linearGradient id="paint7_linear_81_406" x1="46.3812" y1="19.4472" x2="46.3812" y2="42.0996" gradientUnits="userSpaceOnUse">
<stop stop-color="#00E7F0"/>
<stop offset="1" stop-color="#006DF0"/>
</linearGradient>
<linearGradient id="paint8_linear_81_406" x1="32" y1="17.1864" x2="32" y2="18.4364" gradientUnits="userSpaceOnUse">
<stop stop-color="#00E7F0"/>
<stop offset="1" stop-color="#006DF0"/>
</linearGradient>
<linearGradient id="paint9_linear_81_406" x1="33.9628" y1="40.3972" x2="33.9628" y2="41.6472" gradientUnits="userSpaceOnUse">
<stop stop-color="#00E7F0"/>
<stop offset="1" stop-color="#006DF0"/>
</linearGradient>
<linearGradient id="paint10_linear_81_406" x1="31.9999" y1="55.7835" x2="31.9999" y2="57.0335" gradientUnits="userSpaceOnUse">
<stop stop-color="#00E7F0"/>
<stop offset="1" stop-color="#006DF0"/>
</linearGradient>
<linearGradient id="paint11_linear_81_406" x1="11.7603" y1="14.1666" x2="11.7603" y2="15.4349" gradientUnits="userSpaceOnUse">
<stop stop-color="#00E7F0"/>
<stop offset="1" stop-color="#006DF0"/>
</linearGradient>
<linearGradient id="paint12_linear_81_406" x1="14.1759" y1="14.1666" x2="14.1759" y2="15.4349" gradientUnits="userSpaceOnUse">
<stop stop-color="#00E7F0"/>
<stop offset="1" stop-color="#006DF0"/>
</linearGradient>
<linearGradient id="paint13_linear_81_406" x1="16.5914" y1="14.1666" x2="16.5914" y2="15.4349" gradientUnits="userSpaceOnUse">
<stop stop-color="#00E7F0"/>
<stop offset="1" stop-color="#006DF0"/>
</linearGradient>
<linearGradient id="paint14_linear_81_406" x1="32" y1="11.165" x2="32" y2="47.9459" gradientUnits="userSpaceOnUse">
<stop stop-color="#00E7F0"/>
<stop offset="1" stop-color="#006DF0"/>
</linearGradient>
<linearGradient id="paint15_linear_81_406" x1="22.0422" y1="33.0319" x2="22.0422" y2="34.2839" gradientUnits="userSpaceOnUse">
<stop stop-color="#00E7F0"/>
<stop offset="1" stop-color="#006DF0"/>
</linearGradient>
<linearGradient id="paint16_linear_81_406" x1="18.2922" y1="27.7829" x2="18.2922" y2="29.0349" gradientUnits="userSpaceOnUse">
<stop stop-color="#00E7F0"/>
<stop offset="1" stop-color="#006DF0"/>
</linearGradient>
<linearGradient id="paint17_linear_81_406" x1="22.0422" y1="35.5151" x2="22.0422" y2="36.7671" gradientUnits="userSpaceOnUse">
<stop stop-color="#00E7F0"/>
<stop offset="1" stop-color="#006DF0"/>
</linearGradient>
<linearGradient id="paint18_linear_81_406" x1="12.5124" y1="21.0491" x2="12.5124" y2="25.3078" gradientUnits="userSpaceOnUse">
<stop stop-color="#00E7F0"/>
<stop offset="1" stop-color="#006DF0"/>
</linearGradient>
<linearGradient id="paint19_linear_81_406" x1="19.8621" y1="21.049" x2="19.8621" y2="25.3078" gradientUnits="userSpaceOnUse">
<stop stop-color="#00E7F0"/>
<stop offset="1" stop-color="#006DF0"/>
</linearGradient>
<linearGradient id="paint20_linear_81_406" x1="16.1873" y1="21.0488" x2="16.1873" y2="25.3079" gradientUnits="userSpaceOnUse">
<stop stop-color="#00E7F0"/>
<stop offset="1" stop-color="#006DF0"/>
</linearGradient>
<linearGradient id="paint21_linear_81_406" x1="46.3813" y1="28.4089" x2="46.3813" y2="36.7671" gradientUnits="userSpaceOnUse">
<stop stop-color="#00E7F0"/>
<stop offset="1" stop-color="#006DF0"/>
</linearGradient>
<linearGradient id="paint22_linear_81_406" x1="42.2921" y1="31.31" x2="42.2921" y2="36.7671" gradientUnits="userSpaceOnUse">
<stop stop-color="#00E7F0"/>
<stop offset="1" stop-color="#006DF0"/>
</linearGradient>
<linearGradient id="paint23_linear_81_406" x1="50.4704" y1="26.2246" x2="50.4704" y2="36.7671" gradientUnits="userSpaceOnUse">
<stop stop-color="#00E7F0"/>
<stop offset="1" stop-color="#006DF0"/>
</linearGradient>
<linearGradient id="paint24_linear_81_406" x1="38.5926" y1="21.0489" x2="38.5926" y2="22.4464" gradientUnits="userSpaceOnUse">
<stop stop-color="#00E7F0"/>
<stop offset="1" stop-color="#006DF0"/>
</linearGradient>
<linearGradient id="paint25_linear_81_406" x1="36.4788" y1="21.0489" x2="36.4788" y2="22.4464" gradientUnits="userSpaceOnUse">
<stop stop-color="#00E7F0"/>
<stop offset="1" stop-color="#006DF0"/>
</linearGradient>
<linearGradient id="paint26_linear_81_406" x1="34.365" y1="21.0489" x2="34.365" y2="22.4464" gradientUnits="userSpaceOnUse">
<stop stop-color="#00E7F0"/>
<stop offset="1" stop-color="#006DF0"/>
</linearGradient>
<clipPath id="clip0_81_406">
<rect width="64" height="64" fill="white"/>
</clipPath>
</defs>
</svg>
